<?xml version="1.0" encoding="utf-8"?>
<!-- Generator: Adobe Illustrator 19.1.0, SVG Export Plug-In . SVG Version: 6.00 Build 0)  -->
<svg version="1.1"
	 id="svg2" xmlns:svg="http://www.w3.org/2000/svg" xmlns:rdf="http://www.w3.org/1999/02/22-rdf-syntax-ns#" xmlns:cc="http://creativecommons.org/ns#" xmlns:dc="http://purl.org/dc/elements/1.1/"
	 xmlns="http://www.w3.org/2000/svg" xmlns:xlink="http://www.w3.org/1999/xlink" x="0px" y="0px" viewBox="-301 253.3 188 106.7"
	 style="enable-background:new -301 253.3 188 106.7;" xml:space="preserve">
<style type="text/css">
	.st0{fill:#333333;}
	.st1{fill:#FFFFFF;}
	.st2{clip-path:url(#SVGID_2_);}
	.st3{fill:#4B4849;}
	.st4{fill:#1C1918;}
	.st5{fill:#1C1A19;}
	.st6{fill:#1D1A19;}
	.st7{fill:#1E1A19;}
	.st8{fill:#1E1B1A;}
	.st9{fill:#1F1B1A;}
	.st10{fill:#1F1C1A;}
	.st11{fill:#201C1B;}
	.st12{fill:#211D1B;}
	.st13{fill:#211D1C;}
	.st14{fill:#221E1C;}
	.st15{fill:#221E1D;}
	.st16{fill:#231E1D;}
	.st17{fill:#231F1D;}
	.st18{fill:#231F1E;}
	.st19{fill:#241F1E;}
	.st20{fill:#25201E;}
	.st21{fill:#25201F;}
	.st22{fill:#26211F;}
	.st23{fill:#262120;}
	.st24{fill:#272220;}
	.st25{fill:#272221;}
	.st26{fill:#282221;}
	.st27{fill:#282321;}
	.st28{fill:#282322;}
	.st29{fill:#292322;}
	.st30{fill:#292422;}
	.st31{fill:#2A2423;}
	.st32{fill:#2A2523;}
	.st33{fill:#2B2524;}
	.st34{fill:#2B2624;}
	.st35{fill:#2C2625;}
	.st36{fill:#2C2725;}
	.st37{fill:#2D2725;}
	.st38{fill:#2D2726;}
	.st39{fill:#2D2826;}
	.st40{fill:#2E2826;}
	.st41{fill:#2E2827;}
	.st42{fill:#2F2927;}
	.st43{fill:#2F2928;}
	.st44{fill:#302A28;}
	.st45{fill:#302A29;}
	.st46{fill:#312A29;}
	.st47{fill:#312B2A;}
	.st48{fill:#322C2A;}
	.st49{fill:#322C2B;}
	.st50{fill:#332D2B;}
	.st51{fill:#332C2B;}
	.st52{fill:#332D2C;}
	.st53{fill:#342E2C;}
	.st54{fill:#342E2D;}
	.st55{fill:#352E2D;}
	.st56{fill:#352F2E;}
	.st57{fill:#362F2E;}
	.st58{fill:#36302F;}
	.st59{fill:#37312F;}
	.st60{fill:#373130;}
	.st61{fill:#383130;}
	.st62{fill:#383231;}
	.st63{fill:#393332;}
	.st64{fill:#3A3332;}
	.st65{fill:#3A3433;}
	.st66{fill:#3B3534;}
	.st67{fill:#3C3635;}
	.st68{fill:#3D3736;}
	.st69{fill:#3D3837;}
	.st70{fill:#3D3737;}
	.st71{fill:#3E3837;}
	.st72{fill:#3E3838;}
	.st73{fill:#3E3938;}
	.st74{fill:#3F3939;}
	.st75{fill:#3F3A3A;}
	.st76{fill:#403A3A;}
	.st77{fill:#403B3A;}
	.st78{fill:#413B3B;}
	.st79{fill:#413C3B;}
	.st80{fill:#423C3C;}
	.st81{fill:#423D3C;}
	.st82{fill:#423D3D;}
	.st83{fill:#433E3E;}
	.st84{fill:#433E3D;}
	.st85{fill:#443F3E;}
	.st86{fill:#443F3F;}
	.st87{fill:#454040;}
	.st88{fill:#454141;}
	.st89{fill:#464141;}
	.st90{fill:#464242;}
	.st91{fill:#474242;}
	.st92{fill:#474343;}
	.st93{fill:#484444;}
	.st94{fill:#494445;}
	.st95{fill:#484445;}
	.st96{fill:#494545;}
	.st97{fill:#494546;}
	.st98{fill:#494647;}
	.st99{fill:#4A4647;}
	.st100{fill:#4A4748;}
	.st101{fill:#4B4848;}
	.st102{clip-path:url(#SVGID_4_);}
	.st103{fill:url(#path302_1_);}
	.st104{clip-path:url(#SVGID_6_);}
	.st105{fill:url(#path318_1_);}
	.st106{clip-path:url(#SVGID_8_);}
	.st107{fill:url(#path334_1_);}
	.st108{clip-path:url(#SVGID_10_);}
	.st109{fill:url(#path350_1_);}
	.st110{clip-path:url(#SVGID_12_);}
	.st111{fill:url(#path366_1_);}
	.st112{clip-path:url(#SVGID_14_);}
	.st113{fill:url(#path382_1_);}
	.st114{clip-path:url(#SVGID_16_);}
	.st115{fill:url(#path398_1_);}
	.st116{clip-path:url(#SVGID_18_);}
	.st117{fill:url(#path414_1_);}
</style>
<g>
	<path id="path16" class="st0" d="M-277.8,307h3.5c0-5.2,0.1-8.3,0.2-9.3c0.3-2.2,1.2-3.9,2.7-5.2c1.6-1.3,3.8-1.9,6.6-1.9
		c2.1,0,4.4,0.5,7,1.4v7.6c-1.4-0.4-2.6-0.6-3.5-0.6c-1.2,0-2,0.2-2.5,0.7c-0.4,0.4-0.6,1.1-0.6,2.3l0,5h6.3v8.5h-6.3v31.4h-9.9
		v-31.4h-3.5V307"/>
	<path id="path18" class="st1" d="M-242,290.6h9.9c-3.4,3.9-5.9,8-7.6,12.5c-1.7,4.5-2.5,9.6-2.5,15.4c0,6.3,0.9,11.8,2.8,16.5
		c1.5,3.7,3.9,7.6,7.4,11.9h-9.9c-3.1-4.9-5.2-9.4-6.4-13.7c-1.2-4.2-1.8-9.2-1.8-15c0-5.6,0.6-10.6,1.9-14.8
		C-247,299.3-244.9,294.9-242,290.6"/>
	<path id="path20" class="st1" d="M-144.5,346.9h-9.9c3.4-3.9,5.9-8,7.6-12.5c1.7-4.5,2.5-9.6,2.5-15.4c0-6.3-0.9-11.8-2.8-16.5
		c-1.5-3.7-3.9-7.6-7.4-11.9h9.9c3.1,4.9,5.2,9.4,6.4,13.7c1.2,4.2,1.8,9.2,1.8,15c0,5.6-0.6,10.6-1.9,14.8
		C-139.4,338.2-141.5,342.5-144.5,346.9"/>
	<g id="g22">
		<g>
			<defs>
				<path id="SVGID_1_" d="M-233.3,283.3l2.2,5.9l17.4,17.4l-17.4,17.4l-2.2,5.9l16.8,16.8l5.9-2.2l17.4-17.4l17.4,17.4l5.9,2.2
					l16.8-16.8l-2.2-5.9l-17.4-17.4l17.4-17.4l2.2-5.9l-16.8-16.8l-5.9,2.2l-17.4,17.4l-17.4-17.4l-5.9-2.2L-233.3,283.3z
					 M-226.1,289.1l15.5-15.5l17.4,17.4l17.4-17.4l15.5,15.5l-17.4,17.4l17.4,17.4l-15.5,15.5l-17.4-17.4l-17.4,17.4l-15.5-15.5
					l17.4-17.4L-226.1,289.1z"/>
			</defs>
			<clipPath id="SVGID_2_">
				<use xlink:href="#SVGID_1_"  style="overflow:visible;"/>
			</clipPath>
			<g id="g24" class="st2">
				<path id="path30" class="st3" d="M-233.3,266.4h80.2v80.2h-80.2V266.4"/>
				<path id="path32" class="st4" d="M-192.6,306.5c0-0.4-0.3-0.7-0.7-0.7c-0.4,0-0.7,0.3-0.7,0.7c0,0.4,0.3,0.7,0.7,0.7
					C-192.9,307.2-192.6,306.9-192.6,306.5"/>
				<path id="path34" class="st5" d="M-192.8,306.5c0,0.2-0.2,0.4-0.4,0.4c-0.2,0-0.4-0.2-0.4-0.4c0-0.2,0.2-0.4,0.4-0.4
					C-193,306.1-192.8,306.3-192.8,306.5z M-192.1,306.5c0-0.6-0.5-1.1-1.1-1.1c-0.6,0-1.1,0.5-1.1,1.1c0,0.6,0.5,1.1,1.1,1.1
					C-192.6,307.6-192.1,307.1-192.1,306.5"/>
				<path id="path36" class="st6" d="M-192.4,306.5c0,0.5-0.4,0.9-0.9,0.9c-0.5,0-0.9-0.4-0.9-0.9c0-0.5,0.4-0.9,0.9-0.9
					C-192.7,305.6-192.4,306-192.4,306.5z M-191.7,306.5c0-0.9-0.7-1.6-1.5-1.6c-0.9,0-1.6,0.7-1.6,1.6c0,0.9,0.7,1.6,1.6,1.6
					C-192.4,308.1-191.7,307.4-191.7,306.5"/>
				<path id="path38" class="st6" d="M-191.9,306.5c0,0.7-0.6,1.3-1.3,1.3c-0.7,0-1.3-0.6-1.3-1.3c0-0.7,0.6-1.3,1.3-1.3
					C-192.5,305.2-191.9,305.8-191.9,306.5z M-191.2,306.5c0-1.1-0.9-2-2-2c-1.1,0-2,0.9-2,2c0,1.1,0.9,2,2,2
					C-192.1,308.5-191.2,307.6-191.2,306.5"/>
				<path id="path40" class="st7" d="M-191.5,306.5c0,1-0.8,1.8-1.8,1.8c-1,0-1.8-0.8-1.8-1.8c0-1,0.8-1.8,1.8-1.8
					C-192.3,304.7-191.5,305.5-191.5,306.5z M-190.8,306.5c0-1.3-1.1-2.4-2.4-2.4c-1.3,0-2.4,1.1-2.4,2.4c0,1.3,1.1,2.4,2.4,2.4
					C-191.9,308.9-190.8,307.9-190.8,306.5"/>
				<path id="path42" class="st8" d="M-191,306.5c0,1.2-1,2.2-2.2,2.2c-1.2,0-2.2-1-2.2-2.2c0-1.2,1-2.2,2.2-2.2
					C-192,304.3-191,305.3-191,306.5z M-190.4,306.5c0-1.6-1.3-2.9-2.9-2.9c-1.6,0-2.9,1.3-2.9,2.9s1.3,2.9,2.9,2.9
					C-191.6,309.4-190.4,308.1-190.4,306.5"/>
				<path id="path44" class="st8" d="M-190.6,306.5c0,1.5-1.2,2.7-2.7,2.7c-1.5,0-2.7-1.2-2.7-2.7c0-1.5,1.2-2.7,2.7-2.7
					C-191.8,303.9-190.6,305-190.6,306.5z M-189.9,306.5c0-1.8-1.5-3.3-3.3-3.3c-1.8,0-3.3,1.5-3.3,3.3c0,1.8,1.5,3.3,3.3,3.3
					C-191.4,309.8-189.9,308.3-189.9,306.5"/>
				<path id="path46" class="st9" d="M-190.1,306.5c0,1.7-1.4,3.1-3.1,3.1c-1.7,0-3.1-1.4-3.1-3.1c0-1.7,1.4-3.1,3.1-3.1
					C-191.5,303.4-190.1,304.8-190.1,306.5z M-189.5,306.5c0-2.1-1.7-3.8-3.8-3.8c-2.1,0-3.8,1.7-3.8,3.8c0,2.1,1.7,3.8,3.8,3.8
					C-191.2,310.3-189.5,308.6-189.5,306.5"/>
				<path id="path48" class="st8" d="M-189.7,306.5c0,2-1.6,3.5-3.5,3.5c-2,0-3.5-1.6-3.5-3.5c0-2,1.6-3.5,3.5-3.5
					C-191.3,303-189.7,304.6-189.7,306.5z M-189,306.5c0-2.3-1.9-4.2-4.2-4.2c-2.3,0-4.2,1.9-4.2,4.2c0,2.3,1.9,4.2,4.2,4.2
					C-190.9,310.7-189,308.8-189,306.5"/>
				<path id="path50" class="st9" d="M-189.3,306.5c0,2.2-1.8,4-4,4c-2.2,0-4-1.8-4-4c0-2.2,1.8-4,4-4
					C-191,302.5-189.3,304.3-189.3,306.5z M-188.6,306.5c0-2.6-2.1-4.7-4.7-4.7c-2.6,0-4.7,2.1-4.7,4.7s2.1,4.7,4.7,4.7
					C-190.7,311.2-188.6,309.1-188.6,306.5"/>
				<path id="path52" class="st10" d="M-188.8,306.5c0,2.4-2,4.4-4.4,4.4c-2.4,0-4.4-2-4.4-4.4c0-2.4,2-4.4,4.4-4.4
					C-190.8,302.1-188.8,304.1-188.8,306.5z M-188.1,306.5c0-2.8-2.3-5.1-5.1-5.1c-2.8,0-5.1,2.3-5.1,5.1c0,2.8,2.3,5.1,5.1,5.1
					C-190.4,311.6-188.1,309.3-188.1,306.5"/>
				<path id="path54" class="st11" d="M-188.4,306.5c0,2.7-2.2,4.9-4.9,4.9c-2.7,0-4.9-2.2-4.9-4.9s2.2-4.9,4.9-4.9
					C-190.5,301.6-188.4,303.8-188.4,306.5z M-187.7,306.5c0-3.1-2.5-5.5-5.5-5.5c-3.1,0-5.5,2.5-5.5,5.5c0,3.1,2.5,5.5,5.5,5.5
					C-190.2,312-187.7,309.6-187.7,306.5"/>
				<path id="path56" class="st11" d="M-187.9,306.5c0,2.9-2.4,5.3-5.3,5.3c-2.9,0-5.3-2.4-5.3-5.3c0-2.9,2.4-5.3,5.3-5.3
					C-190.3,301.2-187.9,303.6-187.9,306.5z M-187.3,306.5c0-3.3-2.7-6-6-6c-3.3,0-6,2.7-6,6c0,3.3,2.7,6,6,6
					C-189.9,312.5-187.3,309.8-187.3,306.5"/>
				<path id="path58" class="st12" d="M-187.5,306.5c0,3.2-2.6,5.8-5.8,5.8c-3.2,0-5.8-2.6-5.8-5.8c0-3.2,2.6-5.8,5.8-5.8
					C-190.1,300.8-187.5,303.3-187.5,306.5z M-186.8,306.5c0-3.5-2.9-6.4-6.4-6.4c-3.5,0-6.4,2.9-6.4,6.4c0,3.5,2.9,6.4,6.4,6.4
					C-189.7,312.9-186.8,310.1-186.8,306.5"/>
				<path id="path60" class="st13" d="M-187,306.5c0,3.4-2.8,6.2-6.2,6.2c-3.4,0-6.2-2.8-6.2-6.2c0-3.4,2.8-6.2,6.2-6.2
					C-189.8,300.3-187,303.1-187,306.5z M-186.4,306.5c0-3.8-3.1-6.9-6.9-6.9c-3.8,0-6.9,3.1-6.9,6.9s3.1,6.9,6.9,6.9
					C-189.4,313.4-186.4,310.3-186.4,306.5"/>
				<path id="path62" class="st13" d="M-186.6,306.5c0,3.7-3,6.6-6.6,6.6c-3.7,0-6.6-3-6.6-6.6s3-6.6,6.6-6.6
					C-189.6,299.9-186.6,302.8-186.6,306.5z M-185.9,306.5c0-4-3.3-7.3-7.3-7.3c-4,0-7.3,3.3-7.3,7.3c0,4,3.3,7.3,7.3,7.3
					C-189.2,313.8-185.9,310.5-185.9,306.5"/>
				<path id="path64" class="st14" d="M-186.2,306.5c0,3.9-3.2,7.1-7.1,7.1c-3.9,0-7.1-3.2-7.1-7.1c0-3.9,3.2-7.1,7.1-7.1
					C-189.3,299.4-186.2,302.6-186.2,306.5z M-185.5,306.5c0-4.3-3.5-7.8-7.8-7.8c-4.3,0-7.8,3.5-7.8,7.8c0,4.3,3.5,7.8,7.8,7.8
					C-189,314.3-185.5,310.8-185.5,306.5"/>
				<path id="path66" class="st14" d="M-185.7,306.5c0,4.2-3.4,7.5-7.5,7.5c-4.2,0-7.5-3.4-7.5-7.5c0-4.2,3.4-7.5,7.5-7.5
					C-189.1,299-185.7,302.4-185.7,306.5z M-185,306.5c0-4.5-3.7-8.2-8.2-8.2s-8.2,3.7-8.2,8.2c0,4.5,3.7,8.2,8.2,8.2
					C-188.7,314.7-185,311-185,306.5"/>
				<path id="path68" class="st15" d="M-185.3,306.5c0,4.4-3.6,8-8,8c-4.4,0-8-3.6-8-8c0-4.4,3.6-8,8-8
					C-188.8,298.5-185.3,302.1-185.3,306.5z M-184.6,306.5c0-4.8-3.9-8.6-8.6-8.6c-4.8,0-8.6,3.9-8.6,8.6c0,4.8,3.9,8.6,8.6,8.6
					C-188.5,315.1-184.6,311.3-184.6,306.5"/>
				<path id="path70" class="st16" d="M-184.8,306.5c0,4.6-3.8,8.4-8.4,8.4c-4.6,0-8.4-3.8-8.4-8.4c0-4.6,3.8-8.4,8.4-8.4
					C-188.6,298.1-184.8,301.9-184.8,306.5z M-184.2,306.5c0-5-4.1-9.1-9.1-9.1c-5,0-9.1,4.1-9.1,9.1c0,5,4.1,9.1,9.1,9.1
					C-188.2,315.6-184.2,311.5-184.2,306.5"/>
				<path id="path72" class="st17" d="M-184.4,306.5c0,4.9-4,8.9-8.9,8.9c-4.9,0-8.9-4-8.9-8.9c0-4.9,4-8.9,8.9-8.9
					C-188.3,297.7-184.4,301.6-184.4,306.5z M-183.7,306.5c0-5.3-4.3-9.5-9.5-9.5c-5.3,0-9.5,4.3-9.5,9.5s4.3,9.5,9.5,9.5
					C-188,316-183.7,311.8-183.7,306.5"/>
				<path id="path74" class="st18" d="M-183.9,306.5c0,5.1-4.2,9.3-9.3,9.3c-5.1,0-9.3-4.2-9.3-9.3c0-5.1,4.2-9.3,9.3-9.3
					C-188.1,297.2-183.9,301.4-183.9,306.5z M-183.3,306.5c0-5.5-4.5-10-10-10c-5.5,0-10,4.5-10,10c0,5.5,4.5,10,10,10
					C-187.7,316.5-183.3,312-183.3,306.5"/>
				<path id="path76" class="st19" d="M-183.5,306.5c0,5.4-4.4,9.7-9.7,9.7c-5.4,0-9.7-4.4-9.7-9.7s4.4-9.7,9.7-9.7
					C-187.9,296.8-183.5,301.1-183.5,306.5z M-182.8,306.5c0-5.7-4.7-10.4-10.4-10.4c-5.7,0-10.4,4.7-10.4,10.4s4.7,10.4,10.4,10.4
					C-187.5,316.9-182.8,312.3-182.8,306.5"/>
				<path id="path78" class="st19" d="M-183.1,306.5c0,5.6-4.6,10.2-10.2,10.2c-5.6,0-10.2-4.6-10.2-10.2c0-5.6,4.6-10.2,10.2-10.2
					C-187.6,296.3-183.1,300.9-183.1,306.5z M-182.4,306.5c0-6-4.9-10.9-10.9-10.9c-6,0-10.9,4.9-10.9,10.9c0,6,4.9,10.9,10.9,10.9
					C-187.2,317.4-182.4,312.5-182.4,306.5"/>
				<path id="path80" class="st19" d="M-182.6,306.5c0,5.9-4.8,10.6-10.6,10.6c-5.9,0-10.6-4.8-10.6-10.6c0-5.9,4.8-10.6,10.6-10.6
					C-187.4,295.9-182.6,300.6-182.6,306.5z M-181.9,306.5c0-6.2-5.1-11.3-11.3-11.3c-6.2,0-11.3,5.1-11.3,11.3
					c0,6.2,5.1,11.3,11.3,11.3C-187,317.8-181.9,312.7-181.9,306.5"/>
				<path id="path82" class="st20" d="M-182.2,306.5c0,6.1-5,11.1-11.1,11.1c-6.1,0-11.1-5-11.1-11.1c0-6.1,5-11.1,11.1-11.1
					C-187.1,295.4-182.2,300.4-182.2,306.5z M-181.5,306.5c0-6.5-5.3-11.7-11.7-11.7c-6.5,0-11.7,5.3-11.7,11.7
					c0,6.5,5.3,11.7,11.7,11.7C-186.8,318.2-181.5,313-181.5,306.5"/>
				<path id="path84" class="st21" d="M-181.7,306.5c0,6.4-5.2,11.5-11.5,11.5c-6.4,0-11.5-5.2-11.5-11.5c0-6.4,5.2-11.5,11.5-11.5
					C-186.9,295-181.7,300.2-181.7,306.5z M-181.1,306.5c0-6.7-5.5-12.2-12.2-12.2s-12.2,5.5-12.2,12.2c0,6.7,5.5,12.2,12.2,12.2
					S-181.1,313.2-181.1,306.5"/>
				<path id="path86" class="st21" d="M-181.3,306.5c0,6.6-5.4,12-12,12c-6.6,0-12-5.4-12-12c0-6.6,5.4-12,12-12
					C-186.6,294.6-181.3,299.9-181.3,306.5z M-180.6,306.5c0-7-5.7-12.6-12.6-12.6c-7,0-12.6,5.7-12.6,12.6c0,7,5.7,12.6,12.6,12.6
					C-186.3,319.1-180.6,313.5-180.6,306.5"/>
				<path id="path88" class="st22" d="M-180.8,306.5c0,6.8-5.6,12.4-12.4,12.4c-6.8,0-12.4-5.6-12.4-12.4c0-6.8,5.6-12.4,12.4-12.4
					C-186.4,294.1-180.8,299.7-180.8,306.5z M-180.2,306.5c0-7.2-5.8-13.1-13.1-13.1c-7.2,0-13.1,5.8-13.1,13.1
					c0,7.2,5.8,13.1,13.1,13.1C-186,319.6-180.2,313.7-180.2,306.5"/>
				<path id="path90" class="st23" d="M-180.4,306.5c0,7.1-5.8,12.8-12.8,12.8c-7.1,0-12.8-5.8-12.8-12.8c0-7.1,5.8-12.8,12.8-12.8
					C-186.1,293.7-180.4,299.4-180.4,306.5z M-179.7,306.5c0-7.5-6-13.5-13.5-13.5c-7.5,0-13.5,6-13.5,13.5c0,7.5,6,13.5,13.5,13.5
					C-185.8,320-179.7,314-179.7,306.5"/>
				<path id="path92" class="st23" d="M-180,306.5c0,7.3-5.9,13.3-13.3,13.3c-7.3,0-13.3-5.9-13.3-13.3c0-7.3,5.9-13.3,13.3-13.3
					C-185.9,293.2-180,299.2-180,306.5z M-179.3,306.5c0-7.7-6.2-14-14-14c-7.7,0-14,6.2-14,14c0,7.7,6.2,14,14,14
					C-185.5,320.5-179.3,314.2-179.3,306.5"/>
				<path id="path94" class="st24" d="M-179.5,306.5c0,7.6-6.1,13.7-13.7,13.7c-7.6,0-13.7-6.1-13.7-13.7s6.1-13.7,13.7-13.7
					C-185.7,292.8-179.5,298.9-179.5,306.5z M-178.8,306.5c0-7.9-6.4-14.4-14.4-14.4c-7.9,0-14.4,6.4-14.4,14.4s6.4,14.4,14.4,14.4
					C-185.3,320.9-178.8,314.5-178.8,306.5"/>
				<path id="path96" class="st25" d="M-179.1,306.5c0,7.8-6.3,14.2-14.2,14.2c-7.8,0-14.2-6.3-14.2-14.2s6.3-14.2,14.2-14.2
					C-185.4,292.3-179.1,298.7-179.1,306.5z M-178.4,306.5c0-8.2-6.6-14.8-14.8-14.8c-8.2,0-14.8,6.6-14.8,14.8
					c0,8.2,6.6,14.8,14.8,14.8C-185,321.3-178.4,314.7-178.4,306.5"/>
				<path id="path98" class="st26" d="M-178.6,306.5c0,8.1-6.5,14.6-14.6,14.6c-8.1,0-14.6-6.5-14.6-14.6c0-8.1,6.5-14.6,14.6-14.6
					C-185.2,291.9-178.6,298.4-178.6,306.5z M-178,306.5c0-8.4-6.8-15.3-15.3-15.3c-8.4,0-15.3,6.8-15.3,15.3
					c0,8.4,6.8,15.3,15.3,15.3C-184.8,321.8-178,315-178,306.5"/>
				<path id="path100" class="st27" d="M-178.2,306.5c0,8.3-6.7,15.1-15.1,15.1c-8.3,0-15.1-6.7-15.1-15.1c0-8.3,6.7-15.1,15.1-15.1
					C-184.9,291.5-178.2,298.2-178.2,306.5z M-177.5,306.5c0-8.7-7-15.7-15.7-15.7c-8.7,0-15.7,7-15.7,15.7c0,8.7,7,15.7,15.7,15.7
					C-184.6,322.2-177.5,315.2-177.5,306.5"/>
				<path id="path102" class="st28" d="M-177.7,306.5c0,8.6-6.9,15.5-15.5,15.5c-8.6,0-15.5-6.9-15.5-15.5s6.9-15.5,15.5-15.5
					C-184.7,291-177.7,298-177.7,306.5z M-177.1,306.5c0-8.9-7.2-16.2-16.2-16.2c-8.9,0-16.2,7.2-16.2,16.2s7.2,16.2,16.2,16.2
					C-184.3,322.7-177.1,315.4-177.1,306.5"/>
				<path id="path104" class="st27" d="M-177.3,306.5c0,8.8-7.1,15.9-15.9,15.9c-8.8,0-15.9-7.1-15.9-15.9c0-8.8,7.1-15.9,15.9-15.9
					C-184.4,290.6-177.3,297.7-177.3,306.5z M-176.6,306.5c0-9.2-7.4-16.6-16.6-16.6c-9.2,0-16.6,7.4-16.6,16.6
					c0,9.2,7.4,16.6,16.6,16.6C-184.1,323.1-176.6,315.7-176.6,306.5"/>
				<path id="path106" class="st29" d="M-176.9,306.5c0,9.1-7.3,16.4-16.4,16.4c-9.1,0-16.4-7.3-16.4-16.4c0-9.1,7.3-16.4,16.4-16.4
					C-184.2,290.1-176.9,297.5-176.9,306.5z M-176.2,306.5c0-9.4-7.6-17.1-17.1-17.1c-9.4,0-17.1,7.6-17.1,17.1
					c0,9.4,7.6,17.1,17.1,17.1C-183.8,323.6-176.2,315.9-176.2,306.5"/>
				<path id="path108" class="st30" d="M-176.4,306.5c0,9.3-7.5,16.8-16.8,16.8c-9.3,0-16.8-7.5-16.8-16.8c0-9.3,7.5-16.8,16.8-16.8
					C-183.9,289.7-176.4,297.2-176.4,306.5z M-175.7,306.5c0-9.7-7.8-17.5-17.5-17.5c-9.7,0-17.5,7.8-17.5,17.5
					c0,9.7,7.8,17.5,17.5,17.5C-183.6,324-175.7,316.2-175.7,306.5"/>
				<path id="path110" class="st31" d="M-176,306.5c0,9.5-7.7,17.3-17.3,17.3c-9.5,0-17.3-7.7-17.3-17.3c0-9.5,7.7-17.3,17.3-17.3
					C-183.7,289.2-176,297-176,306.5z M-175.3,306.5c0-9.9-8-17.9-17.9-17.9c-9.9,0-17.9,8-17.9,17.9c0,9.9,8,17.9,17.9,17.9
					C-183.3,324.4-175.3,316.4-175.3,306.5"/>
				<path id="path112" class="st31" d="M-175.5,306.5c0,9.8-7.9,17.7-17.7,17.7s-17.7-7.9-17.7-17.7c0-9.8,7.9-17.7,17.7-17.7
					C-183.5,288.8-175.5,296.7-175.5,306.5z M-174.9,306.5c0-10.2-8.2-18.4-18.4-18.4c-10.2,0-18.4,8.2-18.4,18.4
					c0,10.2,8.2,18.4,18.4,18.4C-183.1,324.9-174.9,316.7-174.9,306.5"/>
				<path id="path114" class="st32" d="M-175.1,306.5c0,10-8.1,18.2-18.2,18.2c-10,0-18.2-8.1-18.2-18.2c0-10,8.1-18.2,18.2-18.2
					C-183.2,288.4-175.1,296.5-175.1,306.5z M-174.4,306.5c0-10.4-8.4-18.8-18.8-18.8c-10.4,0-18.8,8.4-18.8,18.8
					c0,10.4,8.4,18.8,18.8,18.8C-182.8,325.3-174.4,316.9-174.4,306.5"/>
				<path id="path116" class="st33" d="M-174.6,306.5c0,10.3-8.3,18.6-18.6,18.6c-10.3,0-18.6-8.3-18.6-18.6
					c0-10.3,8.3-18.6,18.6-18.6C-183,287.9-174.6,296.2-174.6,306.5z M-174,306.5c0-10.6-8.6-19.3-19.3-19.3
					c-10.6,0-19.3,8.6-19.3,19.3c0,10.6,8.6,19.3,19.3,19.3C-182.6,325.8-174,317.2-174,306.5"/>
				<path id="path118" class="st33" d="M-174.2,306.5c0,10.5-8.5,19-19,19c-10.5,0-19-8.5-19-19s8.5-19,19-19
					C-182.7,287.5-174.2,296-174.2,306.5z M-173.5,306.5c0-10.9-8.8-19.7-19.7-19.7c-10.9,0-19.7,8.8-19.7,19.7
					c0,10.9,8.8,19.7,19.7,19.7C-182.4,326.2-173.5,317.4-173.5,306.5"/>
				<path id="path120" class="st34" d="M-173.8,306.5c0,10.8-8.7,19.5-19.5,19.5c-10.8,0-19.5-8.7-19.5-19.5
					c0-10.8,8.7-19.5,19.5-19.5C-182.5,287-173.8,295.8-173.8,306.5z M-173.1,306.5c0-11.1-9-20.2-20.2-20.2
					c-11.1,0-20.2,9-20.2,20.2c0,11.1,9,20.2,20.2,20.2C-182.1,326.7-173.1,317.6-173.1,306.5"/>
				<path id="path122" class="st35" d="M-173.3,306.5c0,11-8.9,19.9-19.9,19.9c-11,0-19.9-8.9-19.9-19.9s8.9-19.9,19.9-19.9
					C-182.2,286.6-173.3,295.5-173.3,306.5z M-172.6,306.5c0-11.4-9.2-20.6-20.6-20.6c-11.4,0-20.6,9.2-20.6,20.6
					c0,11.4,9.2,20.6,20.6,20.6C-181.9,327.1-172.6,317.9-172.6,306.5"/>
				<path id="path124" class="st36" d="M-172.9,306.5c0,11.3-9.1,20.4-20.4,20.4s-20.4-9.1-20.4-20.4c0-11.3,9.1-20.4,20.4-20.4
					C-182,286.1-172.9,295.3-172.9,306.5z M-172.2,306.5c0-11.6-9.4-21-21-21s-21,9.4-21,21s9.4,21,21,21S-172.2,318.1-172.2,306.5"
					/>
				<path id="path126" class="st37" d="M-172.4,306.5c0,11.5-9.3,20.8-20.8,20.8c-11.5,0-20.8-9.3-20.8-20.8
					c0-11.5,9.3-20.8,20.8-20.8C-181.7,285.7-172.4,295-172.4,306.5z M-171.8,306.5c0-11.9-9.6-21.5-21.5-21.5
					c-11.9,0-21.5,9.6-21.5,21.5c0,11.9,9.6,21.5,21.5,21.5C-181.4,328-171.8,318.4-171.8,306.5"/>
				<path id="path128" class="st38" d="M-172,306.5c0,11.7-9.5,21.3-21.3,21.3c-11.7,0-21.3-9.5-21.3-21.3
					c0-11.7,9.5-21.3,21.3-21.3C-181.5,285.3-172,294.8-172,306.5z M-171.3,306.5c0-12.1-9.8-21.9-21.9-21.9
					c-12.1,0-21.9,9.8-21.9,21.9c0,12.1,9.8,21.9,21.9,21.9C-181.1,328.4-171.3,318.6-171.3,306.5"/>
				<path id="path130" class="st39" d="M-171.5,306.5c0,12-9.7,21.7-21.7,21.7c-12,0-21.7-9.7-21.7-21.7c0-12,9.7-21.7,21.7-21.7
					C-181.3,284.8-171.5,294.5-171.5,306.5z M-170.9,306.5c0-12.4-10-22.4-22.4-22.4s-22.4,10-22.4,22.4c0,12.4,10,22.4,22.4,22.4
					C-180.9,328.9-170.9,318.9-170.9,306.5"/>
				<path id="path132" class="st38" d="M-171.1,306.5c0,12.2-9.9,22.1-22.1,22.1c-12.2,0-22.1-9.9-22.1-22.1
					c0-12.2,9.9-22.1,22.1-22.1C-181,284.4-171.1,294.3-171.1,306.5z M-170.4,306.5c0-12.6-10.2-22.8-22.8-22.8
					c-12.6,0-22.8,10.2-22.8,22.8c0,12.6,10.2,22.8,22.8,22.8C-180.6,329.3-170.4,319.1-170.4,306.5"/>
				<path id="path134" class="st40" d="M-170.7,306.5c0,12.5-10.1,22.6-22.6,22.6c-12.5,0-22.6-10.1-22.6-22.6
					c0-12.5,10.1-22.6,22.6-22.6C-180.8,283.9-170.7,294-170.7,306.5z M-170,306.5c0-12.8-10.4-23.3-23.3-23.3
					c-12.8,0-23.3,10.4-23.3,23.3s10.4,23.3,23.3,23.3C-180.4,329.8-170,319.4-170,306.5"/>
				<path id="path136" class="st41" d="M-170.2,306.5c0,12.7-10.3,23-23,23c-12.7,0-23-10.3-23-23c0-12.7,10.3-23,23-23
					C-180.5,283.5-170.2,293.8-170.2,306.5z M-169.5,306.5c0-13.1-10.6-23.7-23.7-23.7c-13.1,0-23.7,10.6-23.7,23.7
					c0,13.1,10.6,23.7,23.7,23.7C-180.2,330.2-169.5,319.6-169.5,306.5"/>
				<path id="path138" class="st42" d="M-169.8,306.5c0,13-10.5,23.5-23.5,23.5c-13,0-23.5-10.5-23.5-23.5c0-13,10.5-23.5,23.5-23.5
					C-180.3,283-169.8,293.5-169.8,306.5z M-169.1,306.5c0-13.3-10.8-24.1-24.1-24.1c-13.3,0-24.1,10.8-24.1,24.1
					c0,13.3,10.8,24.1,24.1,24.1C-179.9,330.6-169.1,319.8-169.1,306.5"/>
				<path id="path140" class="st43" d="M-169.3,306.5c0,13.2-10.7,23.9-23.9,23.9c-13.2,0-23.9-10.7-23.9-23.9s10.7-23.9,23.9-23.9
					C-180,282.6-169.3,293.3-169.3,306.5z M-168.7,306.5c0-13.6-11-24.6-24.6-24.6c-13.6,0-24.6,11-24.6,24.6
					c0,13.6,11,24.6,24.6,24.6C-179.7,331.1-168.7,320.1-168.7,306.5"/>
				<path id="path142" class="st43" d="M-168.9,306.5c0,13.5-10.9,24.4-24.4,24.4c-13.5,0-24.4-10.9-24.4-24.4
					c0-13.5,10.9-24.4,24.4-24.4C-179.8,282.2-168.9,293.1-168.9,306.5z M-168.2,306.5c0-13.8-11.2-25-25-25c-13.8,0-25,11.2-25,25
					s11.2,25,25,25C-179.4,331.5-168.2,320.3-168.2,306.5"/>
				<path id="path144" class="st44" d="M-168.4,306.5c0,13.7-11.1,24.8-24.8,24.8c-13.7,0-24.8-11.1-24.8-24.8
					c0-13.7,11.1-24.8,24.8-24.8C-179.5,281.7-168.4,292.8-168.4,306.5z M-167.8,306.5c0-14.1-11.4-25.5-25.5-25.5
					c-14.1,0-25.5,11.4-25.5,25.5c0,14.1,11.4,25.5,25.5,25.5C-179.2,332-167.8,320.6-167.8,306.5"/>
				<path id="path146" class="st45" d="M-168,306.5c0,13.9-11.3,25.2-25.2,25.2c-13.9,0-25.2-11.3-25.2-25.2
					c0-13.9,11.3-25.2,25.2-25.2C-179.3,281.3-168,292.6-168,306.5z M-167.3,306.5c0-14.3-11.6-25.9-25.9-25.9
					c-14.3,0-25.9,11.6-25.9,25.9s11.6,25.9,25.9,25.9C-178.9,332.4-167.3,320.8-167.3,306.5"/>
				<path id="path148" class="st46" d="M-167.5,306.5c0,14.2-11.5,25.7-25.7,25.7c-14.2,0-25.7-11.5-25.7-25.7s11.5-25.7,25.7-25.7
					C-179.1,280.8-167.5,292.3-167.5,306.5z M-166.9,306.5c0-14.6-11.8-26.4-26.4-26.4c-14.6,0-26.4,11.8-26.4,26.4
					c0,14.6,11.8,26.4,26.4,26.4C-178.7,332.9-166.9,321.1-166.9,306.5"/>
				<path id="path150" class="st47" d="M-167.1,306.5c0,14.4-11.7,26.1-26.1,26.1c-14.4,0-26.1-11.7-26.1-26.1
					c0-14.4,11.7-26.1,26.1-26.1C-178.8,280.4-167.1,292.1-167.1,306.5z M-166.4,306.5c0-14.8-12-26.8-26.8-26.8
					c-14.8,0-26.8,12-26.8,26.8c0,14.8,12,26.8,26.8,26.8C-178.4,333.3-166.4,321.3-166.4,306.5"/>
				<path id="path152" class="st47" d="M-166.7,306.5c0,14.7-11.9,26.6-26.6,26.6c-14.7,0-26.6-11.9-26.6-26.6
					c0-14.7,11.9-26.6,26.6-26.6C-178.6,279.9-166.7,291.8-166.7,306.5z M-166,306.5c0-15-12.2-27.2-27.2-27.2
					c-15,0-27.2,12.2-27.2,27.2c0,15,12.2,27.2,27.2,27.2C-178.2,333.7-166,321.6-166,306.5"/>
				<path id="path154" class="st48" d="M-166.2,306.5c0,14.9-12.1,27-27,27c-14.9,0-27-12.1-27-27c0-14.9,12.1-27,27-27
					C-178.3,279.5-166.2,291.6-166.2,306.5z M-165.6,306.5c0-15.3-12.4-27.7-27.7-27.7c-15.3,0-27.7,12.4-27.7,27.7
					c0,15.3,12.4,27.7,27.7,27.7C-177.9,334.2-165.6,321.8-165.6,306.5"/>
				<path id="path156" class="st49" d="M-165.8,306.5c0,15.2-12.3,27.5-27.5,27.5c-15.2,0-27.5-12.3-27.5-27.5
					c0-15.2,12.3-27.5,27.5-27.5C-178.1,279.1-165.8,291.3-165.8,306.5z M-165.1,306.5c0-15.5-12.6-28.1-28.1-28.1
					c-15.5,0-28.1,12.6-28.1,28.1c0,15.5,12.6,28.1,28.1,28.1C-177.7,334.6-165.1,322-165.1,306.5"/>
				<path id="path158" class="st50" d="M-165.3,306.5c0,15.4-12.5,27.9-27.9,27.9c-15.4,0-27.9-12.5-27.9-27.9
					c0-15.4,12.5-27.9,27.9-27.9C-177.8,278.6-165.3,291.1-165.3,306.5z M-164.7,306.5c0-15.8-12.8-28.6-28.6-28.6
					s-28.6,12.8-28.6,28.6c0,15.8,12.8,28.6,28.6,28.6S-164.7,322.3-164.7,306.5"/>
				<path id="path160" class="st51" d="M-164.9,306.5c0,15.7-12.7,28.3-28.3,28.3c-15.7,0-28.3-12.7-28.3-28.3
					c0-15.7,12.7-28.3,28.3-28.3C-177.6,278.2-164.9,290.9-164.9,306.5z M-164.2,306.5c0-16-13-29-29-29c-16,0-29,13-29,29
					c0,16,13,29,29,29C-177.2,335.5-164.2,322.5-164.2,306.5"/>
				<path id="path162" class="st50" d="M-164.4,306.5c0,15.9-12.9,28.8-28.8,28.8c-15.9,0-28.8-12.9-28.8-28.8s12.9-28.8,28.8-28.8
					C-177.3,277.7-164.4,290.6-164.4,306.5z M-163.8,306.5c0-16.3-13.2-29.5-29.5-29.5c-16.3,0-29.5,13.2-29.5,29.5
					c0,16.3,13.2,29.5,29.5,29.5C-177,336-163.8,322.8-163.8,306.5"/>
				<path id="path164" class="st52" d="M-164,306.5c0,16.1-13.1,29.2-29.2,29.2c-16.1,0-29.2-13.1-29.2-29.2
					c0-16.1,13.1-29.2,29.2-29.2C-177.1,277.3-164,290.4-164,306.5z M-163.3,306.5c0-16.5-13.4-29.9-29.9-29.9s-29.9,13.4-29.9,29.9
					s13.4,29.9,29.9,29.9S-163.3,323-163.3,306.5"/>
				<path id="path166" class="st53" d="M-163.6,306.5c0,16.4-13.3,29.7-29.7,29.7c-16.4,0-29.7-13.3-29.7-29.7
					c0-16.4,13.3-29.7,29.7-29.7C-176.8,276.8-163.6,290.1-163.6,306.5z M-162.9,306.5c0-16.8-13.6-30.3-30.3-30.3
					c-16.8,0-30.3,13.6-30.3,30.3c0,16.8,13.6,30.3,30.3,30.3C-176.5,336.8-162.9,323.3-162.9,306.5"/>
				<path id="path168" class="st54" d="M-163.1,306.5c0,16.6-13.5,30.1-30.1,30.1c-16.6,0-30.1-13.5-30.1-30.1
					c0-16.6,13.5-30.1,30.1-30.1C-176.6,276.4-163.1,289.9-163.1,306.5z M-162.5,306.5c0-17-13.8-30.8-30.8-30.8
					c-17,0-30.8,13.8-30.8,30.8s13.8,30.8,30.8,30.8C-176.2,337.3-162.5,323.5-162.5,306.5"/>
				<path id="path170" class="st55" d="M-162.7,306.5c0,16.9-13.7,30.6-30.6,30.6s-30.6-13.7-30.6-30.6s13.7-30.6,30.6-30.6
					S-162.7,289.6-162.7,306.5z M-162,306.5c0-17.2-14-31.2-31.2-31.2c-17.2,0-31.2,14-31.2,31.2s14,31.2,31.2,31.2
					C-176,337.7-162,323.8-162,306.5"/>
				<path id="path172" class="st56" d="M-162.2,306.5c0,17.1-13.9,31-31,31c-17.1,0-31-13.9-31-31c0-17.1,13.9-31,31-31
					C-176.1,275.5-162.2,289.4-162.2,306.5z M-161.6,306.5c0-17.5-14.2-31.7-31.7-31.7c-17.5,0-31.7,14.2-31.7,31.7
					c0,17.5,14.2,31.7,31.7,31.7C-175.7,338.2-161.6,324-161.6,306.5"/>
				<path id="path174" class="st57" d="M-161.8,306.5c0,17.4-14.1,31.4-31.4,31.4c-17.4,0-31.4-14.1-31.4-31.4
					c0-17.4,14.1-31.4,31.4-31.4C-175.9,275.1-161.8,289.1-161.8,306.5z M-161.1,306.5c0-17.7-14.4-32.1-32.1-32.1
					c-17.7,0-32.1,14.4-32.1,32.1c0,17.7,14.4,32.1,32.1,32.1C-175.5,338.6-161.1,324.2-161.1,306.5"/>
				<path id="path176" class="st58" d="M-161.3,306.5c0,17.6-14.3,31.9-31.9,31.9c-17.6,0-31.9-14.3-31.9-31.9
					c0-17.6,14.3-31.9,31.9-31.9C-175.6,274.6-161.3,288.9-161.3,306.5L-161.3,306.5z M-160.7,306.5c0-18-14.6-32.6-32.6-32.6
					c-18,0-32.6,14.6-32.6,32.6c0,18,14.6,32.6,32.6,32.6C-175.3,339.1-160.7,324.5-160.7,306.5"/>
				<path id="path178" class="st58" d="M-160.9,306.5c0,17.9-14.5,32.3-32.3,32.3c-17.9,0-32.3-14.5-32.3-32.3
					c0-17.9,14.5-32.3,32.3-32.3C-175.4,274.2-160.9,288.7-160.9,306.5z M-160.2,306.5c0-18.2-14.8-33-33-33c-18.2,0-33,14.8-33,33
					c0,18.2,14.8,33,33,33C-175,339.5-160.2,324.7-160.2,306.5"/>
				<path id="path180" class="st59" d="M-160.5,306.5c0,18.1-14.7,32.8-32.8,32.8c-18.1,0-32.8-14.7-32.8-32.8s14.7-32.8,32.8-32.8
					C-175.1,273.7-160.5,288.4-160.5,306.5z M-159.8,306.5c0-18.5-15-33.4-33.4-33.4c-18.5,0-33.4,15-33.4,33.4s15,33.4,33.4,33.4
					C-174.8,339.9-159.8,325-159.8,306.5"/>
				<path id="path182" class="st60" d="M-160,306.5c0,18.3-14.9,33.2-33.2,33.2c-18.3,0-33.2-14.9-33.2-33.2
					c0-18.3,14.9-33.2,33.2-33.2C-174.9,273.3-160,288.2-160,306.5z M-159.4,306.5c0-18.7-15.2-33.9-33.9-33.9
					c-18.7,0-33.9,15.2-33.9,33.9c0,18.7,15.2,33.9,33.9,33.9C-174.5,340.4-159.4,325.2-159.4,306.5"/>
				<path id="path184" class="st61" d="M-159.6,306.5c0,18.6-15.1,33.7-33.7,33.7c-18.6,0-33.7-15.1-33.7-33.7
					c0-18.6,15.1-33.7,33.7-33.7C-174.6,272.9-159.6,287.9-159.6,306.5z M-158.9,306.5c0-19-15.4-34.3-34.3-34.3
					c-19,0-34.3,15.4-34.3,34.3c0,19,15.4,34.3,34.3,34.3C-174.3,340.8-158.9,325.5-158.9,306.5"/>
				<path id="path186" class="st62" d="M-159.1,306.5c0,18.8-15.3,34.1-34.1,34.1c-18.8,0-34.1-15.3-34.1-34.1
					c0-18.8,15.3-34.1,34.1-34.1C-174.4,272.4-159.1,287.7-159.1,306.5z M-158.5,306.5c0-19.2-15.6-34.8-34.8-34.8
					s-34.8,15.6-34.8,34.8s15.6,34.8,34.8,34.8S-158.5,325.7-158.5,306.5"/>
				<path id="path188" class="st62" d="M-158.7,306.5c0,19.1-15.5,34.5-34.5,34.5c-19.1,0-34.5-15.5-34.5-34.5s15.5-34.5,34.5-34.5
					C-174.2,272-158.7,287.4-158.7,306.5z M-158,306.5c0-19.4-15.8-35.2-35.2-35.2c-19.4,0-35.2,15.8-35.2,35.2s15.8,35.2,35.2,35.2
					C-173.8,341.7-158,326-158,306.5"/>
				<path id="path190" class="st62" d="M-158.2,306.5c0,19.3-15.7,35-35,35c-19.3,0-35-15.7-35-35c0-19.3,15.7-35,35-35
					C-173.9,271.5-158.2,287.2-158.2,306.5z M-157.6,306.5c0-19.7-16-35.7-35.7-35.7c-19.7,0-35.7,16-35.7,35.7
					c0,19.7,16,35.7,35.7,35.7C-173.5,342.2-157.6,326.2-157.6,306.5"/>
				<path id="path192" class="st63" d="M-157.8,306.5c0,19.6-15.9,35.4-35.4,35.4c-19.6,0-35.4-15.9-35.4-35.4s15.9-35.4,35.4-35.4
					C-173.7,271.1-157.8,286.9-157.8,306.5z M-157.1,306.5c0-19.9-16.2-36.1-36.1-36.1c-19.9,0-36.1,16.2-36.1,36.1
					c0,19.9,16.2,36.1,36.1,36.1C-173.3,342.6-157.1,326.4-157.1,306.5"/>
				<path id="path194" class="st63" d="M-157.4,306.5c0,19.8-16.1,35.9-35.9,35.9c-19.8,0-35.9-16.1-35.9-35.9
					c0-19.8,16.1-35.9,35.9-35.9C-173.4,270.6-157.4,286.7-157.4,306.5z M-156.7,306.5c0-20.2-16.4-36.5-36.5-36.5
					c-20.2,0-36.5,16.4-36.5,36.5c0,20.2,16.4,36.5,36.5,36.5C-173.1,343-156.7,326.7-156.7,306.5"/>
				<path id="path196" class="st64" d="M-156.9,306.5c0,20.1-16.3,36.3-36.3,36.3c-20.1,0-36.3-16.3-36.3-36.3
					c0-20.1,16.3-36.3,36.3-36.3C-173.2,270.2-156.9,286.5-156.9,306.5z M-156.3,306.5c0-20.4-16.6-37-37-37c-20.4,0-37,16.6-37,37
					c0,20.4,16.6,37,37,37C-172.8,343.5-156.3,326.9-156.3,306.5"/>
				<path id="path198" class="st65" d="M-156.5,306.5c0,20.3-16.5,36.8-36.8,36.8c-20.3,0-36.8-16.5-36.8-36.8
					c0-20.3,16.5-36.8,36.8-36.8C-172.9,269.8-156.5,286.2-156.5,306.5z M-155.8,306.5c0-20.7-16.8-37.4-37.4-37.4
					c-20.7,0-37.4,16.8-37.4,37.4c0,20.7,16.8,37.4,37.4,37.4C-172.6,343.9-155.8,327.2-155.8,306.5"/>
				<path id="path200" class="st65" d="M-156,306.5c0,20.5-16.7,37.2-37.2,37.2c-20.5,0-37.2-16.7-37.2-37.2
					c0-20.5,16.7-37.2,37.2-37.2C-172.7,269.3-156,286-156,306.5z M-155.4,306.5c0-20.9-17-37.9-37.9-37.9
					c-20.9,0-37.9,17-37.9,37.9c0,20.9,17,37.9,37.9,37.9C-172.3,344.4-155.4,327.4-155.4,306.5"/>
				<path id="path202" class="st66" d="M-155.6,306.5c0,20.8-16.9,37.6-37.6,37.6c-20.8,0-37.6-16.9-37.6-37.6
					c0-20.8,16.9-37.6,37.6-37.6C-172.4,268.9-155.6,285.7-155.6,306.5z M-154.9,306.5c0-21.2-17.2-38.3-38.3-38.3
					c-21.2,0-38.3,17.2-38.3,38.3s17.2,38.3,38.3,38.3C-172.1,344.8-154.9,327.7-154.9,306.5"/>
				<path id="path204" class="st66" d="M-155.1,306.5c0,21-17.1,38.1-38.1,38.1c-21,0-38.1-17.1-38.1-38.1s17.1-38.1,38.1-38.1
					C-172.2,268.4-155.1,285.5-155.1,306.5z M-154.5,306.5c0-21.4-17.3-38.8-38.8-38.8c-21.4,0-38.8,17.3-38.8,38.8
					c0,21.4,17.3,38.8,38.8,38.8C-171.8,345.3-154.5,327.9-154.5,306.5"/>
				<path id="path206" class="st67" d="M-154.7,306.5c0,21.3-17.3,38.5-38.5,38.5c-21.3,0-38.5-17.3-38.5-38.5
					c0-21.3,17.3-38.5,38.5-38.5C-172,268-154.7,285.2-154.7,306.5z M-154,306.5c0-21.6-17.5-39.2-39.2-39.2
					c-21.6,0-39.2,17.5-39.2,39.2c0,21.6,17.5,39.2,39.2,39.2C-171.6,345.7-154,328.2-154,306.5"/>
				<path id="path208" class="st67" d="M-154.3,306.5c0,21.5-17.4,39-39,39c-21.5,0-39-17.4-39-39s17.4-39,39-39
					C-171.7,267.5-154.3,285-154.3,306.5z M-153.6,306.5c0-21.9-17.7-39.6-39.6-39.6c-21.9,0-39.6,17.7-39.6,39.6
					c0,21.9,17.7,39.6,39.6,39.6C-171.3,346.1-153.6,328.4-153.6,306.5"/>
				<path id="path210" class="st68" d="M-153.8,306.5c0,21.8-17.6,39.4-39.4,39.4s-39.4-17.6-39.4-39.4s17.6-39.4,39.4-39.4
					S-153.8,284.7-153.8,306.5z M-153.2,306.5c0-22.1-17.9-40.1-40.1-40.1c-22.1,0-40.1,17.9-40.1,40.1s17.9,40.1,40.1,40.1
					C-171.1,346.6-153.2,328.6-153.2,306.5"/>
				<path id="path212" class="st68" d="M-153.4,306.5c0,22-17.8,39.9-39.9,39.9s-39.9-17.8-39.9-39.9c0-22,17.8-39.9,39.9-39.9
					S-153.4,284.5-153.4,306.5z M-152.7,306.5c0-22.4-18.1-40.5-40.5-40.5c-22.4,0-40.5,18.1-40.5,40.5c0,22.4,18.1,40.5,40.5,40.5
					C-170.9,347-152.7,328.9-152.7,306.5"/>
				<path id="path214" class="st69" d="M-152.9,306.5c0,22.3-18,40.3-40.3,40.3c-22.3,0-40.3-18-40.3-40.3s18-40.3,40.3-40.3
					C-171,266.2-152.9,284.3-152.9,306.5z M-152.3,306.5c0-22.6-18.3-41-41-41c-22.6,0-41,18.3-41,41c0,22.6,18.3,41,41,41
					C-170.6,347.5-152.3,329.1-152.3,306.5"/>
				<path id="path216" class="st70" d="M-152.5,306.5c0,22.5-18.2,40.7-40.7,40.7c-22.5,0-40.7-18.2-40.7-40.7s18.2-40.7,40.7-40.7
					C-170.7,265.8-152.5,284-152.5,306.5z M-151.8,306.5c0-22.9-18.5-41.4-41.4-41.4c-22.9,0-41.4,18.5-41.4,41.4
					c0,22.9,18.5,41.4,41.4,41.4C-170.4,347.9-151.8,329.4-151.8,306.5"/>
				<path id="path218" class="st71" d="M-152,306.5c0,22.7-18.4,41.2-41.2,41.2c-22.7,0-41.2-18.4-41.2-41.2
					c0-22.7,18.4-41.2,41.2-41.2C-170.5,265.3-152,283.8-152,306.5z M-151.4,306.5c0-23.1-18.7-41.9-41.9-41.9
					c-23.1,0-41.9,18.7-41.9,41.9c0,23.1,18.7,41.9,41.9,41.9C-170.1,348.4-151.4,329.6-151.4,306.5"/>
				<path id="path220" class="st72" d="M-151.6,306.5c0,23-18.6,41.6-41.6,41.6c-23,0-41.6-18.6-41.6-41.6c0-23,18.6-41.6,41.6-41.6
					C-170.2,264.9-151.6,283.5-151.6,306.5z M-150.9,306.5c0-23.4-18.9-42.3-42.3-42.3c-23.4,0-42.3,18.9-42.3,42.3
					s18.9,42.3,42.3,42.3C-169.9,348.8-150.9,329.9-150.9,306.5"/>
				<path id="path222" class="st73" d="M-151.2,306.5c0,23.2-18.8,42.1-42.1,42.1c-23.2,0-42.1-18.8-42.1-42.1s18.8-42.1,42.1-42.1
					C-170,264.4-151.2,283.3-151.2,306.5z M-150.5,306.5c0-23.6-19.1-42.7-42.7-42.7c-23.6,0-42.7,19.1-42.7,42.7
					c0,23.6,19.1,42.7,42.7,42.7C-169.6,349.2-150.5,330.1-150.5,306.5"/>
				<path id="path224" class="st74" d="M-150.7,306.5c0,23.5-19,42.5-42.5,42.5s-42.5-19-42.5-42.5c0-23.5,19-42.5,42.5-42.5
					S-150.7,283-150.7,306.5z M-150.1,306.5c0-23.8-19.3-43.2-43.2-43.2c-23.8,0-43.2,19.3-43.2,43.2c0,23.8,19.3,43.2,43.2,43.2
					C-169.4,349.7-150.1,330.4-150.1,306.5"/>
				<path id="path226" class="st75" d="M-150.3,306.5c0,23.7-19.2,43-43,43c-23.7,0-43-19.2-43-43s19.2-43,43-43
					C-169.5,263.6-150.3,282.8-150.3,306.5z M-149.6,306.5c0-24.1-19.5-43.6-43.6-43.6c-24.1,0-43.6,19.5-43.6,43.6
					c0,24.1,19.5,43.6,43.6,43.6C-169.1,350.1-149.6,330.6-149.6,306.5"/>
				<path id="path228" class="st76" d="M-149.8,306.5c0,24-19.4,43.4-43.4,43.4c-24,0-43.4-19.4-43.4-43.4c0-24,19.4-43.4,43.4-43.4
					C-169.3,263.1-149.8,282.5-149.8,306.5z M-149.2,306.5c0-24.3-19.7-44.1-44.1-44.1c-24.3,0-44.1,19.7-44.1,44.1
					s19.7,44.1,44.1,44.1C-168.9,350.6-149.2,330.8-149.2,306.5"/>
				<path id="path230" class="st77" d="M-149.4,306.5c0,24.2-19.6,43.8-43.8,43.8c-24.2,0-43.8-19.6-43.8-43.8
					c0-24.2,19.6-43.8,43.8-43.8C-169,262.7-149.4,282.3-149.4,306.5z M-148.7,306.5c0-24.6-19.9-44.5-44.5-44.5
					c-24.6,0-44.5,19.9-44.5,44.5c0,24.6,19.9,44.5,44.5,44.5S-148.7,331.1-148.7,306.5"/>
				<path id="path232" class="st78" d="M-148.9,306.5c0,24.5-19.8,44.3-44.3,44.3c-24.5,0-44.3-19.8-44.3-44.3s19.8-44.3,44.3-44.3
					C-168.8,262.2-148.9,282.1-148.9,306.5z M-148.3,306.5c0-24.8-20.1-45-45-45c-24.8,0-45,20.1-45,45s20.1,45,45,45
					C-168.4,351.5-148.3,331.3-148.3,306.5"/>
				<path id="path234" class="st79" d="M-148.5,306.5c0,24.7-20,44.7-44.7,44.7c-24.7,0-44.7-20-44.7-44.7s20-44.7,44.7-44.7
					C-168.5,261.8-148.5,281.8-148.5,306.5z M-147.8,306.5c0-25.1-20.3-45.4-45.4-45.4c-25.1,0-45.4,20.3-45.4,45.4
					c0,25.1,20.3,45.4,45.4,45.4C-168.2,351.9-147.8,331.6-147.8,306.5"/>
				<path id="path236" class="st80" d="M-148.1,306.5c0,24.9-20.2,45.2-45.2,45.2c-24.9,0-45.2-20.2-45.2-45.2
					c0-24.9,20.2-45.2,45.2-45.2C-168.3,261.3-148.1,281.6-148.1,306.5z M-147.4,306.5c0-25.3-20.5-45.8-45.8-45.8
					c-25.3,0-45.8,20.5-45.8,45.8c0,25.3,20.5,45.8,45.8,45.8C-167.9,352.4-147.4,331.8-147.4,306.5"/>
				<path id="path238" class="st81" d="M-147.6,306.5c0,25.2-20.4,45.6-45.6,45.6c-25.2,0-45.6-20.4-45.6-45.6
					c0-25.2,20.4-45.6,45.6-45.6C-168,260.9-147.6,281.3-147.6,306.5z M-147,306.5c0-25.6-20.7-46.3-46.3-46.3
					c-25.6,0-46.3,20.7-46.3,46.3c0,25.6,20.7,46.3,46.3,46.3C-167.7,352.8-147,332.1-147,306.5"/>
				<path id="path240" class="st82" d="M-147.2,306.5c0,25.4-20.6,46.1-46.1,46.1c-25.4,0-46.1-20.6-46.1-46.1
					c0-25.4,20.6-46.1,46.1-46.1C-167.8,260.5-147.2,281.1-147.2,306.5z M-146.5,306.5c0-25.8-20.9-46.7-46.7-46.7
					c-25.8,0-46.7,20.9-46.7,46.7c0,25.8,20.9,46.7,46.7,46.7C-167.4,353.2-146.5,332.3-146.5,306.5"/>
				<path id="path242" class="st83" d="M-146.7,306.5c0,25.7-20.8,46.5-46.5,46.5s-46.5-20.8-46.5-46.5c0-25.7,20.8-46.5,46.5-46.5
					S-146.7,280.8-146.7,306.5z M-146.1,306.5c0-26-21.1-47.2-47.2-47.2c-26,0-47.2,21.1-47.2,47.2c0,26,21.1,47.2,47.2,47.2
					C-167.2,353.7-146.1,332.6-146.1,306.5"/>
				<path id="path244" class="st84" d="M-146.3,306.5c0,25.9-21,46.9-46.9,46.9c-25.9,0-46.9-21-46.9-46.9c0-25.9,21-46.9,46.9-46.9
					C-167.3,259.6-146.3,280.6-146.3,306.5z M-145.6,306.5c0-26.3-21.3-47.6-47.6-47.6c-26.3,0-47.6,21.3-47.6,47.6
					s21.3,47.6,47.6,47.6C-166.9,354.1-145.6,332.8-145.6,306.5"/>
				<path id="path246" class="st83" d="M-145.8,306.5c0,26.2-21.2,47.4-47.4,47.4c-26.2,0-47.4-21.2-47.4-47.4
					c0-26.2,21.2-47.4,47.4-47.4C-167.1,259.1-145.8,280.3-145.8,306.5z M-145.2,306.5c0-26.5-21.5-48.1-48.1-48.1
					c-26.5,0-48.1,21.5-48.1,48.1c0,26.5,21.5,48.1,48.1,48.1C-166.7,354.6-145.2,333.1-145.2,306.5"/>
				<path id="path248" class="st85" d="M-145.4,306.5c0,26.4-21.4,47.8-47.8,47.8c-26.4,0-47.8-21.4-47.8-47.8
					c0-26.4,21.4-47.8,47.8-47.8C-166.8,258.7-145.4,280.1-145.4,306.5z M-144.7,306.5c0-26.8-21.7-48.5-48.5-48.5
					c-26.8,0-48.5,21.7-48.5,48.5c0,26.8,21.7,48.5,48.5,48.5C-166.5,355-144.7,333.3-144.7,306.5"/>
				<path id="path250" class="st86" d="M-145,306.5c0,26.7-21.6,48.3-48.3,48.3c-26.7,0-48.3-21.6-48.3-48.3
					c0-26.7,21.6-48.3,48.3-48.3C-166.6,258.2-145,279.9-145,306.5z M-144.3,306.5c0-27-21.9-48.9-48.9-48.9
					c-27,0-48.9,21.9-48.9,48.9s21.9,48.9,48.9,48.9C-166.2,355.5-144.3,333.5-144.3,306.5"/>
				<path id="path252" class="st87" d="M-144.5,306.5c0,26.9-21.8,48.7-48.7,48.7c-26.9,0-48.7-21.8-48.7-48.7
					c0-26.9,21.8-48.7,48.7-48.7C-166.3,257.8-144.5,279.6-144.5,306.5z M-143.9,306.5c0-27.3-22.1-49.4-49.4-49.4
					c-27.3,0-49.4,22.1-49.4,49.4c0,27.3,22.1,49.4,49.4,49.4C-166,355.9-143.9,333.8-143.9,306.5"/>
				<path id="path254" class="st87" d="M-144.1,306.5c0,27.2-22,49.2-49.2,49.2s-49.2-22-49.2-49.2c0-27.1,22-49.2,49.2-49.2
					S-144.1,279.4-144.1,306.5z M-143.4,306.5c0-27.5-22.3-49.8-49.8-49.8c-27.5,0-49.8,22.3-49.8,49.8s22.3,49.8,49.8,49.8
					C-165.7,356.3-143.4,334-143.4,306.5"/>
				<path id="path256" class="st88" d="M-143.6,306.5c0,27.4-22.2,49.6-49.6,49.6c-27.4,0-49.6-22.2-49.6-49.6s22.2-49.6,49.6-49.6
					C-165.8,256.9-143.6,279.1-143.6,306.5z M-143,306.5c0-27.8-22.5-50.3-50.3-50.3c-27.8,0-50.3,22.5-50.3,50.3
					c0,27.8,22.5,50.3,50.3,50.3C-165.5,356.8-143,334.3-143,306.5"/>
				<path id="path258" class="st89" d="M-143.2,306.5c0,27.6-22.4,50-50,50c-27.6,0-50-22.4-50-50c0-27.6,22.4-50,50-50
					C-165.6,256.5-143.2,278.9-143.2,306.5z M-142.5,306.5c0-28-22.7-50.7-50.7-50.7c-28,0-50.7,22.7-50.7,50.7
					c0,28,22.7,50.7,50.7,50.7C-165.2,357.2-142.5,334.5-142.5,306.5"/>
				<path id="path260" class="st90" d="M-142.7,306.5c0,27.9-22.6,50.5-50.5,50.5c-27.9,0-50.5-22.6-50.5-50.5
					c0-27.9,22.6-50.5,50.5-50.5C-165.4,256-142.7,278.6-142.7,306.5z M-142.1,306.5c0-28.3-22.9-51.2-51.2-51.2
					c-28.3,0-51.2,22.9-51.2,51.2c0,28.3,22.9,51.2,51.2,51.2C-165,357.7-142.1,334.8-142.1,306.5"/>
				<path id="path262" class="st91" d="M-142.3,306.5c0,28.1-22.8,50.9-50.9,50.9c-28.1,0-50.9-22.8-50.9-50.9
					c0-28.1,22.8-50.9,50.9-50.9C-165.1,255.6-142.3,278.4-142.3,306.5z M-141.6,306.5c0-28.5-23.1-51.6-51.6-51.6
					c-28.5,0-51.6,23.1-51.6,51.6c0,28.5,23.1,51.6,51.6,51.6C-164.7,358.1-141.6,335-141.6,306.5"/>
				<path id="path264" class="st92" d="M-141.9,306.5c0,28.4-23,51.4-51.4,51.4c-28.4,0-51.4-23-51.4-51.4c0-28.4,23-51.4,51.4-51.4
					C-164.9,255.1-141.9,278.1-141.9,306.5z M-141.2,306.5c0-28.7-23.3-52-52-52c-28.7,0-52,23.3-52,52c0,28.7,23.3,52,52,52
					C-164.5,358.6-141.2,335.3-141.2,306.5"/>
				<path id="path266" class="st93" d="M-141.4,306.5c0,28.6-23.2,51.8-51.8,51.8c-28.6,0-51.8-23.2-51.8-51.8s23.2-51.8,51.8-51.8
					C-164.6,254.7-141.4,277.9-141.4,306.5z M-140.8,306.5c0-29-23.5-52.5-52.5-52.5c-29,0-52.5,23.5-52.5,52.5
					c0,29,23.5,52.5,52.5,52.5C-164.3,359-140.8,335.5-140.8,306.5"/>
				<path id="path268" class="st93" d="M-141,306.5c0,28.9-23.4,52.3-52.3,52.3c-28.9,0-52.3-23.4-52.3-52.3
					c0-28.9,23.4-52.3,52.3-52.3C-164.4,254.3-141,277.7-141,306.5z M-140.3,306.5c0-29.2-23.7-52.9-52.9-52.9
					c-29.2,0-52.9,23.7-52.9,52.9c0,29.2,23.7,52.9,52.9,52.9C-164,359.4-140.3,335.7-140.3,306.5"/>
				<path id="path270" class="st94" d="M-140.5,306.5c0,29.1-23.6,52.7-52.7,52.7c-29.1,0-52.7-23.6-52.7-52.7
					c0-29.1,23.6-52.7,52.7-52.7C-164.1,253.8-140.5,277.4-140.5,306.5z M-139.9,306.5c0-29.5-23.9-53.4-53.4-53.4
					c-29.5,0-53.4,23.9-53.4,53.4c0,29.5,23.9,53.4,53.4,53.4C-163.8,359.9-139.9,336-139.9,306.5"/>
				<path id="path272" class="st95" d="M-140.1,306.5c0,29.4-23.8,53.1-53.1,53.1c-29.4,0-53.1-23.8-53.1-53.1
					c0-29.4,23.8-53.1,53.1-53.1C-163.9,253.4-140.1,277.2-140.1,306.5z M-139.4,306.5c0-29.7-24.1-53.8-53.8-53.8
					s-53.8,24.1-53.8,53.8s24.1,53.8,53.8,53.8S-139.4,336.2-139.4,306.5"/>
				<path id="path274" class="st96" d="M-139.6,306.5c0,29.6-24,53.6-53.6,53.6c-29.6,0-53.6-24-53.6-53.6s24-53.6,53.6-53.6
					C-163.6,252.9-139.6,276.9-139.6,306.5z M-139,306.5c0-30-24.3-54.3-54.3-54.3s-54.3,24.3-54.3,54.3s24.3,54.3,54.3,54.3
					S-139,336.5-139,306.5"/>
				<path id="path276" class="st97" d="M-139.2,306.5c0,29.8-24.2,54-54,54c-29.8,0-54-24.2-54-54c0-29.8,24.2-54,54-54
					C-163.4,252.5-139.2,276.7-139.2,306.5z M-138.5,306.5c0-30.2-24.5-54.7-54.7-54.7c-30.2,0-54.7,24.5-54.7,54.7
					c0,30.2,24.5,54.7,54.7,54.7C-163,361.2-138.5,336.7-138.5,306.5"/>
				<path id="path278" class="st98" d="M-138.8,306.5c0,30.1-24.4,54.5-54.5,54.5c-30.1,0-54.5-24.4-54.5-54.5s24.4-54.5,54.5-54.5
					C-163.2,252-138.8,276.4-138.8,306.5z M-138.1,306.5c0-30.5-24.7-55.1-55.1-55.1c-30.5,0-55.1,24.7-55.1,55.1
					c0,30.5,24.7,55.1,55.1,55.1C-162.8,361.7-138.1,337-138.1,306.5"/>
				<path id="path280" class="st99" d="M-138.3,306.5c0,30.3-24.6,54.9-54.9,54.9c-30.3,0-54.9-24.6-54.9-54.9
					c0-30.3,24.6-54.9,54.9-54.9C-162.9,251.6-138.3,276.2-138.3,306.5z M-137.7,306.5c0-30.7-24.9-55.6-55.6-55.6
					c-30.7,0-55.6,24.9-55.6,55.6s24.9,55.6,55.6,55.6C-162.5,362.1-137.7,337.2-137.7,306.5"/>
				<path id="path282" class="st100" d="M-137.9,306.5c0,30.6-24.8,55.4-55.4,55.4c-30.6,0-55.4-24.8-55.4-55.4
					c0-30.6,24.8-55.4,55.4-55.4C-162.7,251.2-137.9,275.9-137.9,306.5z M-137.2,306.5c0-30.9-25.1-56-56-56c-30.9,0-56,25.1-56,56
					c0,30.9,25.1,56,56,56C-162.3,362.5-137.2,337.5-137.2,306.5"/>
				<path id="path284" class="st101" d="M-137.4,306.5c0,30.8-25,55.8-55.8,55.8c-30.8,0-55.8-25-55.8-55.8s25-55.8,55.8-55.8
					C-162.4,250.7-137.4,275.7-137.4,306.5z M-136.8,306.5c0-31.2-25.3-56.5-56.5-56.5c-31.2,0-56.5,25.3-56.5,56.5
					c0,31.2,25.3,56.5,56.5,56.5C-162.1,363-136.8,337.7-136.8,306.5"/>
				<path id="path286" class="st3" d="M-137,306.5c0,31.1-25.2,56.2-56.2,56.2c-31.1,0-56.2-25.2-56.2-56.2s25.2-56.2,56.2-56.2
					C-162.2,250.3-137,275.4-137,306.5z M-136.5,306.5c0-31.3-25.4-56.7-56.7-56.7c-31.3,0-56.7,25.4-56.7,56.7
					c0,31.3,25.4,56.7,56.7,56.7C-161.9,363.2-136.5,337.8-136.5,306.5"/>
			</g>
		</g>
	</g>
	<g id="g288">
		<g>
			<defs>
				<polygon id="SVGID_3_" points="-233.3,283.3 -216.5,266.4 -210.6,268.6 -231.1,289.1 				"/>
			</defs>
			<clipPath id="SVGID_4_">
				<use xlink:href="#SVGID_3_"  style="overflow:visible;"/>
			</clipPath>
			<g id="g290" class="st102">
				
					<linearGradient id="path302_1_" gradientUnits="userSpaceOnUse" x1="-17.5856" y1="444.1037" x2="-1.7258" y2="426.0413" gradientTransform="matrix(1.3333 0 0 1.3333 -210 -303.1111)">
					<stop  offset="0" style="stop-color:#272324"/>
					<stop  offset="1" style="stop-color:#4C4849"/>
				</linearGradient>
				<path id="path302" class="st103" d="M-233.3,283.3l16.8-16.8l5.9,2.2l-20.5,20.5L-233.3,283.3"/>
			</g>
		</g>
	</g>
	<g id="g304">
		<g>
			<defs>
				<polygon id="SVGID_5_" points="-175.9,268.6 -170,266.4 -153.2,283.3 -155.4,289.1 				"/>
			</defs>
			<clipPath id="SVGID_6_">
				<use xlink:href="#SVGID_5_"  style="overflow:visible;"/>
			</clipPath>
			<g id="g306" class="st104">
				
					<linearGradient id="path318_1_" gradientUnits="userSpaceOnUse" x1="43.4993" y1="443.2777" x2="26.0388" y2="426.6909" gradientTransform="matrix(1.3333 0 0 1.3333 -210 -303.1111)">
					<stop  offset="0" style="stop-color:#272324"/>
					<stop  offset="1" style="stop-color:#4C4849"/>
				</linearGradient>
				<path id="path318" class="st105" d="M-175.9,268.6l5.9-2.2l16.8,16.8l-2.2,5.9L-175.9,268.6"/>
			</g>
		</g>
	</g>
	<g id="g320">
		<g>
			<defs>
				<polygon id="SVGID_7_" points="-233.3,329.7 -231.1,323.9 -210.6,344.4 -216.5,346.6 				"/>
			</defs>
			<clipPath id="SVGID_8_">
				<use xlink:href="#SVGID_7_"  style="overflow:visible;"/>
			</clipPath>
			<g id="g322" class="st106">
				
					<linearGradient id="path334_1_" gradientUnits="userSpaceOnUse" x1="-1.8564" y1="488.4749" x2="-17.4476" y2="470.2115" gradientTransform="matrix(1.3333 0 0 1.3333 -210 -303.1111)">
					<stop  offset="0" style="stop-color:#272324"/>
					<stop  offset="1" style="stop-color:#4C4849"/>
				</linearGradient>
				<path id="path334" class="st107" d="M-233.3,329.7l2.2-5.9l20.5,20.5l-5.9,2.2L-233.3,329.7"/>
			</g>
		</g>
	</g>
	<g id="g336">
		<g>
			<defs>
				<polygon id="SVGID_9_" points="-175.9,344.4 -155.4,323.9 -153.2,329.7 -170,346.6 				"/>
			</defs>
			<clipPath id="SVGID_10_">
				<use xlink:href="#SVGID_9_"  style="overflow:visible;"/>
			</clipPath>
			<g id="g338" class="st108">
				
					<linearGradient id="path350_1_" gradientUnits="userSpaceOnUse" x1="26.6023" y1="488.2153" x2="43.0003" y2="470.5874" gradientTransform="matrix(1.3333 0 0 1.3333 -210 -303.1111)">
					<stop  offset="0" style="stop-color:#272324"/>
					<stop  offset="1" style="stop-color:#4C4849"/>
				</linearGradient>
				<path id="path350" class="st109" d="M-175.9,344.4l20.5-20.5l2.2,5.9l-16.8,16.8L-175.9,344.4"/>
			</g>
		</g>
	</g>
	<g id="g352">
		<g>
			<defs>
				<polygon id="SVGID_11_" points="-193.2,286.8 -175.9,269.4 -156.2,289.1 -173.5,306.5 -177,306.5 -159.6,289.2 -175.9,272.9 
					-193.2,290.2 				"/>
			</defs>
			<clipPath id="SVGID_12_">
				<use xlink:href="#SVGID_11_"  style="overflow:visible;"/>
			</clipPath>
			<g id="g354" class="st110">
				
					<linearGradient id="path366_1_" gradientUnits="userSpaceOnUse" x1="12.5747" y1="457.2133" x2="40.3791" y2="429.4088" gradientTransform="matrix(1.3333 0 0 1.3333 -210 -303.1111)">
					<stop  offset="0" style="stop-color:#1C1919"/>
					<stop  offset="1" style="stop-color:#373333"/>
				</linearGradient>
				<path id="path366" class="st111" d="M-193.2,286.8l17.4-17.4l19.7,19.7l-17.4,17.4h-3.4l17.3-17.3l-16.3-16.3l-17.3,17.3V286.8"
					/>
			</g>
		</g>
	</g>
	<g id="g368">
		<g>
			<defs>
				<polygon id="SVGID_13_" points="-193.2,322.8 -193.2,326.2 -175.9,343.6 -156.2,323.9 -173.5,306.5 -177,306.5 -159.6,323.9 
					-175.9,340.1 				"/>
			</defs>
			<clipPath id="SVGID_14_">
				<use xlink:href="#SVGID_13_"  style="overflow:visible;"/>
			</clipPath>
			<g id="g370" class="st112">
				
					<linearGradient id="path382_1_" gradientUnits="userSpaceOnUse" x1="12.5747" y1="457.2222" x2="40.3791" y2="485.0267" gradientTransform="matrix(1.3333 0 0 1.3333 -210 -303.1111)">
					<stop  offset="0" style="stop-color:#0E0A07"/>
					<stop  offset="1" style="stop-color:#373333"/>
				</linearGradient>
				<path id="path382" class="st113" d="M-193.2,322.8l0,3.5l17.4,17.4l19.7-19.7l-17.4-17.4h-3.4l17.4,17.4l-16.3,16.3
					C-175.9,340.1-193.2,322.8-193.2,322.8"/>
			</g>
		</g>
	</g>
	<g id="g384">
		<g>
			<defs>
				<polygon id="SVGID_15_" points="-209.5,306.5 -213,306.5 -230.3,323.9 -210.6,343.6 -193.2,326.2 -193.2,322.8 -210.6,340.1 
					-226.9,323.9 				"/>
			</defs>
			<clipPath id="SVGID_16_">
				<use xlink:href="#SVGID_15_"  style="overflow:visible;"/>
			</clipPath>
			<g id="g386" class="st114">
				
					<linearGradient id="path398_1_" gradientUnits="userSpaceOnUse" x1="13.7736" y1="456.0139" x2="-16.4484" y2="486.2358" gradientTransform="matrix(1.3333 0 0 1.3333 -210 -303.1111)">
					<stop  offset="0" style="stop-color:#1C1A1A"/>
					<stop  offset="1" style="stop-color:#373333"/>
				</linearGradient>
				<path id="path398" class="st115" d="M-209.5,306.5l-3.5,0l-17.4,17.4l19.7,19.7l17.4-17.4v-3.4l-17.4,17.4l-16.3-16.3
					L-209.5,306.5"/>
			</g>
		</g>
	</g>
	<g id="g400">
		<g>
			<defs>
				<polygon id="SVGID_17_" points="-210.6,269.4 -230.3,289.1 -213,306.5 -209.5,306.5 -226.9,289.1 -210.6,272.9 -193.2,290.2 
					-193.2,286.8 				"/>
			</defs>
			<clipPath id="SVGID_18_">
				<use xlink:href="#SVGID_17_"  style="overflow:visible;"/>
			</clipPath>
			<g id="g402" class="st116">
				
					<linearGradient id="path414_1_" gradientUnits="userSpaceOnUse" x1="12.5654" y1="457.213" x2="-15.239" y2="429.4085" gradientTransform="matrix(1.3333 0 0 1.3333 -210 -303.1111)">
					<stop  offset="0" style="stop-color:#0E0A07"/>
					<stop  offset="1" style="stop-color:#373333"/>
				</linearGradient>
				<path id="path414" class="st117" d="M-210.6,269.4l-19.7,19.7l17.4,17.4l3.4,0l-17.4-17.4l16.3-16.3l17.4,17.4v-3.4
					L-210.6,269.4"/>
			</g>
		</g>
	</g>
</g>
</svg>
