<?xml version="1.0" encoding="utf-8"?>
<svg version="1.1" id="Layer_1" xmlns="http://www.w3.org/2000/svg" xmlns:xlink="http://www.w3.org/1999/xlink" x="0px" y="0px" viewBox="0 0 99.5 72.6" enable-background="new 0 0 99.5 72.6" xml:space="preserve">
  <g id="logo">
    <path fill="#FFFFFF" d="M0.2,28.3c0.6,0.8,1.8,0.6,2.4,0.1c0.5-0.4,1-1.2,2.1-0.9c0.5,0.2,1.2,1.3,2.1,1.1 c0.6-0.2,0.5-1.4,0.2-1.9c-0.3-0.5-0.9-0.6-1-1.3c0.1-0.1,0.2-0.1,0.3-0.1l-1.1-1.7c-0.3,0.2-0.6,0.4-1,0.6 C2.6,25.2,0.5,26,0.2,28.3z"/>
    <path fill="#FFFFFF" d="M4.7,32.4c-0.4,0.4-0.9,0.9-0.8,1.6c0,0,0,0.1,0,0.1c0.2,0.6,1,1.5,1.5,1.8c0.3,0.2,0.7,0.3,1,0.4 c0.3,0.1,0.8,0.2,1,0.4C7.8,37,8,37.7,8.2,38.1c0.2,0.5,0.4,1,0.6,1.4c0.4,0.9,0.6,1.9,1.7,2.3c0.3-0.4,0.5-1.5,0.4-2.4 c-0.1-0.5-0.7-1.4,0.3-1.4c0.7,0,0.7,0.7,0.7,1.5c0,1-0.4,1.9-0.2,2.5c0.7,0.1,1.2,0,1.7-0.2c0.5-0.3,0.7-0.8,1.2-1.1 c0.8-0.4,2.2-0.3,3.1-0.8c0.2-0.1,1.4-1.1,1.4-1.5c0-0.4-0.9-0.6-1.4-0.7c-1.4-0.5-3.5-1.2-5.1-1.3c-0.5,0-1.1,0.1-1.2-0.4 c0-0.4,0.6-0.6,1.5-0.5l0.1,0l0.1-0.6c-0.3,0-0.6-0.1-0.7-0.3c-0.1-0.5,0.9-0.6,1.7-0.6l0-1.4c-0.1,0-0.2,0-0.4,0 c-0.1-0.5-0.1-0.9,0-1.2l-1.4-0.1c-0.1,0.2-0.2,0.6-0.5,0.6c-0.1,0-0.2-0.1-0.2-0.3l-1.3,0c0.1,0.3,0.5,1.5-0.1,1.5 c-0.4,0-0.6-0.6-0.6-1.1c-0.2-1-0.2-2.2-0.2-3.3l-0.4,0c0,0,0,0.1,0,0.1C8.5,29.6,7,29.5,6.4,30c-0.1,0.3,0.3,0.5,0.3,0.9 c0,0.3-0.7,0.6-0.9,0.8C5.3,31.9,5,32.2,4.7,32.4z"/>
    <path fill="#FFFFFF" d="M5.2,23.6l1.1,1.7c0.3,0,0.6,0.2,0.8,0.4c0.4,0.3,1,1.1,1.3,1.7c0.2,0.4,0.4,1,0.4,1.4l0.4,0 c0.1-1,0.2-2,0.4-2.7c0,0,0,0,0,0c0,0,0,0,0,0c0,0.1,0,0.1,0,0.2c0.1,1.2-0.1,2.3,0,3.8c0.1,0.6,0.2,1.2,0.3,1.7l1.3,0 c-0.1-0.3,0-0.8,0-1.2c0.5-2.4,0.9-4.3,1.7-6.5c0,0,0,0,0.1,0l1.1-1.3c0.1-0.5,4.1-4.3,4.6-4.6c1.2-0.8,3-0.8,4.5-1.5 c-0.3-1.7-0.5-3.7,0.3-5l-0.9,0c-0.6,0.8-1.1,1.5-1.7,2.1c-0.3,0.4-0.7,0.8-1.2,1.1c-1.2,0.6-2.4,0.7-3.8,1.2 c-0.3,0.1-1.1,0.4-1.1,0.5c0,0.3,0.9,0.5,1.4,0.5c0.6,0,1-0.3,1.3-0.2c-0.1,0.5-0.7,1.1-1.2,1.2c-0.8,0.2-1.8,0-2.7,0 c-2.2,0.1-3.5,1.6-4.8,2.7C7.8,21.6,6.6,22.6,5.2,23.6z"/>
    <path fill="#FFFFFF" d="M12.1,31.1C12.1,31.1,12.1,31.2,12.1,31.1l1.4,0.2c0.2-0.6,0.6-1.1,1-1.7c0.8-1.1,1.6-2.1,2.6-3 c0.5-0.5,1.1-0.8,1.4-1.3c-1.1-0.4-2.9-0.2-4.1-0.1L13,24.9c-0.3,1.6-0.6,3.4-0.8,5.1C12.2,30.3,12.2,30.7,12.1,31.1z"/>
    <path fill="#FFFFFF" d="M12.5,44.4c-0.8,0.8-0.2,2.1,0.3,2.7c0.5,0.6,1.1,1,1.8,1.2c-0.1-0.3-0.3-0.6-0.5-0.9 c-0.6-0.8-1-1.8-1.4-2.9C12.7,44.4,12.7,44.4,12.5,44.4C12.6,44.3,12.5,44.3,12.5,44.4z"/>
    <path fill="#FFFFFF" d="M12.9,34.9l-0.1,0.6c0.4,0,0.8,0.1,1.3,0.3c1.2,0.4,2.7,0.8,4,1.5c0.4,0.2,0.8,0.6,1.2,0.6 c0.4,0,0.7-0.7,0.9-1c0.2-0.2,0.8-0.8,0.7-1.2c-0.1-0.3-1.4-0.6-1.9-0.6c-1.6-0.4-2.7-0.4-4.7-0.2C14,34.9,13.4,35,12.9,34.9z"/>
    <path fill="#FFFFFF" d="M13,24.9L13,24.9l1.4,0.3c0.2-0.4,0.7-0.7,1.1-0.9c0.8-0.4,2-0.6,3.2-0.4c0.9,0.2,1.8,0.5,2.5-0.1 c0,0.2-0.4,0.2-0.3,0.5c0,0.3,0.5,0.4,0.8,0.5c1.7,1,2.7,3.1,3.2,5.3c0.2,0.2,0.7,0.1,1,0.3c-0.2,0.1-0.8,0-0.9,0.2 c-0.1,0.4-0.3,1.1-0.1,1.4c0.9,0,1.7-0.2,2.6-0.2c0.6,0,3.1,0.5,3.7,0.4c0.8-0.1,1.4-0.6,1.2-1.5c-0.1-0.8-0.8-1.6-1.2-2.3 c-0.4-0.7-0.9-1.5-1-2.4c-0.2-0.9-0.1-2-0.6-2.6c-0.3-0.3-0.9-0.5-1.3-0.8c-0.8-0.5-1.6-0.9-2.2-1.6c-0.8-0.9-1.2-1.6-2.7-1.7 c-2-0.2-3.7,0.1-5.1,0.8c-1.3,0.7-2.4,1.6-3.9,2.1l-1.1,1.3C13.3,24.2,13.1,24.6,13,24.9z"/>
    <path fill="#FFFFFF" d="M16,42.2c-1.5-0.2-2.5,0.7-2.2,2.1c0.4,2.1,2,3.8,4,4.9c1,0.6,2.2,1.1,3.3,1.1c-0.2-0.7-0.8-1.2-1.3-1.8 c-0.8-1.2-1.5-2.8-2.1-4.2C17.4,43.6,16.8,42.3,16,42.2z"/>
    <path fill="#FFFFFF" d="M13.9,32.6l0,1.4c0.1,0,0.3,0,0.4,0c2,0,3.4,0.1,4.9,0.6c0.3,0.1,1.8,0.7,2.1,0.6c0.4-0.1,0.8-1,1-1.3 c0.3-0.5,0.6-1.1,0.7-1.6c0.1-0.5,0.2-1.1,0-1.5c-2.7-0.1-5.2,0.6-7.3,1.3C15.1,32.2,14.5,32.6,13.9,32.6z"/>
    <path fill="#FFFFFF" d="M16.6,28.1c-0.9,1.1-1.7,2.1-2.2,3.3c0.7,0,1.3-0.3,2-0.4c1.3-0.3,2.7-0.5,4.3-0.6 c0.8-0.1,1.6,0.1,2.3-0.2c0-1.3-0.8-2.7-1.6-3.5c-0.3-0.3-1.3-1.1-1.8-1.1c-0.6,0-1.3,0.7-1.7,1.1C17.3,27.2,17,27.6,16.6,28.1z"/>
    <path fill="#FFFFFF" d="M21.3,55.2C21.2,55.2,21.2,55.2,21.3,55.2c0,1,0.3,2,0.7,2.8c1,1.8,2.8,3.5,5.1,4.2 c1.1,0.3,2.2,0.3,2.6-0.5c0.5-1,0.3-2.5-0.6-3c-0.5-0.3-1.2-0.4-1.8-0.6c-0.6-0.2-1.3-0.3-1.9-0.5C23.7,57,22.5,56,21.3,55.2z"/>
    <path fill="#FFFFFF" d="M22.8,11.4l0.9,0c0.1-0.2,0.2-0.3,0.3-0.4c0.7-0.8,1.7-1.4,2.6-2c1-0.6,2.2-1.2,3.4-1.2 c0.2,0.8-0.6,0.9-1,1.1c-0.2,0.1-0.4,0.2-0.6,0.3l0.7,1.3c2.5,0,5,0.3,7.2,0c2.2-0.3,3.5-1.5,5.1-2.3l0,0.1l0.1-0.6 c-1.2-0.2-2.6-0.2-4,0.1c-2,0.3-4.9,1.1-6.1-0.7c0.7-0.2,1.8,0.3,2.8,0.2c0.3,0,1.1-0.3,1-0.7c-0.1-0.2-1.5-0.3-3.2-0.3 c-2,0-4.4,0.2-5.1,0.4c-1.1,0.3-1.6,1.1-2.1,1.9C24.2,9.4,23.5,10.4,22.8,11.4z"/>
    <path fill="#FFFFFF" d="M23.8,54.1c-0.4,0.4,0.1,1.5,0.3,1.8c0.4,0.4,1.1,0.6,1.8,0.8c0.7,0.3,1.4,0.5,2.1,0.5 c0.3-0.2,0.5-0.5,0.5-1c-0.7-0.5-1.6-0.6-2.4-0.9C25.2,55,24.5,54.6,23.8,54.1L23.8,54.1z"/>
    <path fill="#FFFFFF" d="M25.9,12.1c0,0.8,0.3,2.4,1,2.4c0.4,0,0.8-1.1,0.9-1.4c0-0.1,0.1-0.3,0.1-0.4c0.2-0.9,0.3-1.9,1.1-2.2 l-0.7-1.3C27.2,9.7,26,10.6,25.9,12.1z"/>
    <path fill="#FFFFFF" d="M27.5,67.4c0.5,0.2,0.8-0.4,1.2-0.3c0.5,0.1,0.3,0.9,0.7,1.2c0.6-0.2,0.6-1,1.2-1.2 c0.5,0.3,0.4,1.2,0.8,1.6c0.5-0.3,0.5-1.1,1.1-1.3c0.3,0.2,0,1,0.3,1.1c0.5,0.1,0.6-0.5,1.2-0.6c0.3,0.5-0.3,1.5,0.2,2 c0.5,0,0.5-0.6,1-0.7c0.4,0.1,0.2,0.7,0.5,0.9c0.4,0,0.7-0.3,1.1-0.4c0.7-0.4,1.3-0.7,2.2-1.1c0.3-0.2,0.9-0.4,1-0.7 c0.1-0.2-0.4-1.1-0.5-1.5c-0.2-1,0-1.9,0.3-2.8c0.1-0.2,0.2-0.7,0.3-0.8c0.4-0.4,1.2-0.3,1.8-0.6c0.2-0.1,0.5-0.4,0.8-0.7 c0.6-0.5,1-0.7,1.8-1.2c0.3-0.2,0.8-0.4,0.9-0.6c0.1-0.2,0.1-0.4,0.1-0.7c0-0.4,0-0.9,0-1.4c0-0.7,0.1-1.4,0.3-1.9 c0.2-0.5,2.3-4.7,2.7-6.4c0.2-1,0.4-4.7,0.4-4.9c0-0.5-0.3-0.9-0.3-1.3l-1.4,0.1c0.1,1.4,0.1,2.8-0.1,4c-0.1,0.3-0.2,1.5-0.3,1.7 c0,0.7-0.3,1.3-0.6,1.8c-0.3-0.4-1.2-6.9-1.3-7.1c-0.1-0.4-0.5-0.8-0.9-0.9c-0.1,0.6-0.4,1.3-0.5,1.9c-0.3,1.5-0.2,3.2-1.3,3.9 c-0.1-0.2-0.2-0.8-0.2-1.6l-1.3,0c0,1.2-0.3,2.5-0.7,3.5c-0.2,0.3-0.4,0.7-0.3,0.8c0,0.2,0.5,0.4,0.7,0.7c1,0.9,2.1,2,2.2,3.8 c0.2,2.5-2.4,2.5-3.5,3.9c-0.5,0.6-0.5,1.2-1,2.1c-0.6-0.6-0.6-1.9-0.3-2.8c0.4-1,2.1-2.6,0.9-4.1c-0.8,0.4-1.2,1.1-1.6,1.8 c-0.4,0.6-1,1.2-1.4,1.9c-0.6,1-1.3,2.1-1.8,3.4c-0.1,0.4-0.3,1-0.5,1.2c-0.3,0.3-1.1,0.2-1.7,0.3c-0.9,0.1-1.9,0.5-2.8,0.4 c-0.4,0-0.8-0.3-1.1-0.2c-0.3,0.8,1,1.2,1,1.7c0,0.3-0.4,0.6-0.6,0.9C27.8,66.8,27.6,67,27.5,67.4z"/>
    <path fill="#FFFFFF" d="M29,12.8c-0.1,0.4-0.2,0.8-0.2,1.2c0.5,0,0.8-0.4,1.2-0.7c0.4-0.3,0.9-0.7,1.6-0.7l0-1 c-0.4-0.1-0.9-0.2-1.3-0.2C29.5,11.5,29.2,12.1,29,12.8z"/>
    <path fill="#FFFFFF" d="M29.5,15.4c-0.1,0.3,0.1,0.8,0.6,0.7C30.6,15.5,29.7,14.8,29.5,15.4z"/>
    <path fill="#FFFFFF" d="M29.6,56.5c-0.4,0.5,0,1.6,0.3,1.9c0.6,0.6,2,0.5,2.7,0c1-0.7,1.9-2.2,2.6-3.6l-2.3-0.4 c-0.2,0.5-0.7,0.9-0.9,1.1c-0.2,0.1-0.7,0.4-1.2,0.6C30.5,56.2,29.8,56.3,29.6,56.5z"/>
    <path fill="#FFFFFF" d="M28.8,17.2c0.4,0.8,1.2,1.7,2.1,2.1c0.4,0.2,1,0.4,1.4,0.5c1.5,0.3,3-0.2,4.3-0.4 c-0.4,0.8-1.4,1.5-2.4,1.9c-0.8,0.3-1.8,0.2-2.8,0.4c0,0.5,0.3,1,0.6,1.5c0.7,1.2,2,2.1,3.9,2.1c1.4,0,2.6-0.7,3.7-1.3 c0.9-0.5,1.7-1.1,2.2-1.6c0.2-0.3,0.6-0.7,0.7-1c0.8-2-1.9-4.1-0.3-6.1L39.5,14c-0.1,0.2-0.2,0.3-0.4,0.5 c-0.5,0.5-1.2,0.9-2.1,1.1c-0.3,0.1-0.8,0.1-1.2,0.2c-0.5,0.2-0.8,0.7-1.4,1.1c-0.6,0.3-1.4,0.6-2.3,0.7 C31.1,17.5,30.1,17.2,28.8,17.2z"/>
    <path fill="#FFFFFF" d="M31.7,11.7l0,1c0.1,0,0.2,0,0.2,0c0.3,0,0.7,0.3,1,0.4c0.9,0.4,1.9,1.1,2.9,1.4c0.5,0.2,1.3,0.2,1.8,0 c0.7-0.2,1.2-0.8,2.1-1.1c0,0.2-0.1,0.4-0.2,0.6l2.8,1.4c0.3,0.2,0.3,0.7,0.4,1c0.4,1.8,2.4,3,1.9,5.3c-0.3,1.7-1.8,3.4-3,4.4 c-0.4,0.3-0.9,0.5-1.2,1c0.3,0.3,0.8,0.2,1.1,0.2c1,0.2,2.1,0.8,2.6,1.5c0.2,0.4,0.4,1,0.4,1.5c0.1,0.5,0.2,1.6-0.3,1.6h0 l-0.9,1.5c0.6,0.4,1.1,0.8,1.4,1.4c0.5,0.7,0.7,1.7,1,2.7c0.2,0.8,0.4,1.9,0.6,3c0.1,0.8,0.2,1.7,0.3,2.6l1.4-0.1 c0-0.2,0-0.3,0.1-0.5c0.4,0.2,0.8,1,0.9,1.5c0,0.3-0.2,0.8,0.2,0.9c0.1,0,0.3-0.1,0.4-0.4c0,0,0-0.1,0-0.1c0.3-0.9,0.5-2.5,0.6-3 c0.4-4.6-2.6-6.7-2.9-10.5c-0.1-1.4,0.1-3.3,1.1-3.7c0.3,0.4,0.1,0.7,0.2,1.2c0.2,1,3.5,6.5,4.3,8c0.5,0.9,1.3,2.1,1.3,3.1 c0,1.1-1,2.2-0.8,3.3c0,0,0.2,0.3,0.5,0.6c1.1,1.3,3.7,4.4,3.9,4.6c0.6,0.9,1.3,2,0.8,3.5c0,0.1-0.1,0.4-0.3,0.6l2.8,0.2 c0.2-0.4,0.4-0.7,0.5-1.1c0.9-2,1.9-4.8,1.4-7.8c-0.4-2.5-1.2-5.2-1.9-7.6c-0.9-2.9-1.8-5.8-3.2-8.2c-2-3.4-5.8-5.3-8.4-8.2 c-0.6-0.7-1.2-1.6-1.7-2.4c-0.5-0.8-1-1.7-1.4-2.7c0.6,0.3,1,0.9,1.5,1.3c0.5,0.5,0.9,1,1.5,1.3c1.1,0.8,4.8,2.7,5.5,3 c1.9,0.9,3.9,1.7,5.3,3.1c1.8,1.7,2.9,4.3,4.2,6.7c0.7,1.2,1.2,2.5,1.7,3.8c0.2,0.7,1.8,7,1.9,7.2c0.3,1.1,1.1,1.8,1.7,2.7 c0.3,0.4,0.5,1,0.9,1.2c0.2-0.3,0.5-1.3,0.5-1.5c0.1-0.6,0.1-1.4,0.1-2c0-0.5,0.2-1.2,0.4-1.8c0.3-1,0.6-2.1,1.2-2.8 c0.5-0.7,1.3-1.2,1.9-1.8c0.8-0.7,1.9-1.6,2.2-2.8c0.3-1.1-0.3-1.5-0.9-2.1c-0.4-0.4-2.2-2.6-3-3.4c-0.7-0.7-1.8-1.3-2.7-1.8 c-0.3-0.2-0.7-0.3-0.9-0.6c0.6-0.2,11.2-2.5,11.8-3.1l0.1-0.1c0.5-0.6,1-1.8,1.3-2.5c0.3-0.6,0.6-1.5,1-2.5c0.5-1.2,1-2.7,1.4-3.8 l-2.1-0.1c-0.6,1.7-1.1,3.1-1.9,4.6c-0.4,0.7-0.8,1.3-1.3,1.8C79.1,19,78,19.6,77,20c-0.5,0.2-1,0.5-1.6,0.6 c-0.3-0.5-0.6-1.4-0.5-2.2c0-0.3,0.3-0.5,0.1-0.8c-1.1,0.3-1.4,1.3-2.3,1.9c-0.2-0.9-0.2-1.8-0.3-2.6c-0.1-0.4-0.2-1-0.6-1.1 c-0.4,0.6-0.5,1.4-0.8,2.1c-0.3,0.6-0.6,1.3-1.4,1.5c-0.2-0.6,0-1.5-0.4-1.8c-0.6,0.7-0.6,1.8-1.4,2.3c-0.5-0.2-0.3-1-0.6-1.3 c-0.6,0.2-1,0.6-1.4,1.1c-0.3,0.3-0.6,1-1,1.1c-0.4,0.1-1.3-0.4-1.7-0.6c-1.7-0.9-2.9-2.4-4-3.9c-0.5-0.7-1.1-1.6-1.8-2.2 c-0.6-0.5-1.5-1.1-2.1-1.5C54.4,12,53.6,11.7,53,11c0.3,0,0.5,0,0.8,0l0.3-1.7c-0.5-0.1-0.8-0.4-1.1-0.7c-1.1-0.8-2.2-1.4-3.8-1.8 c-2-0.4-4.2-0.9-6.5-0.9c0.3,0.5,2.4,1.5,2.7,1.9c0.3,0.3,0.4,0.7,0.8,0.9c0.6,0.3,1.4,0.1,2.1,0.3c0.5,0.2,2.5,2.8,2.8,3.9 c-0.3-0.1-0.6-0.3-0.9-0.6c-0.7-0.7-1.5-1.6-2.5-2c-1.1-0.5-2.6-0.4-3.8-0.9c0-0.3,0.3-0.3,0.3-0.7c-0.6-0.6-1.6-1-2.6-1.2 l-0.1,0.6c0.3,0.6,0,1.3-0.3,1.7c-0.5,1-1.7,1.6-2.8,2.1c-1.2,0.5-2.8,0.9-4.2,0.6C33.3,12.4,32.5,12,31.7,11.7z"/>
    <path fill="#FFFFFF" d="M33.7,14.8c-0.5-0.2-0.8-0.4-1.3-0.3c0.2,0.6,0.3,1.2,0.3,1.9c0.3,0.1,0.8,0,1.2-0.2 c0.3-0.2,0.9-0.5,0.9-0.8C34.7,15,34,14.9,33.7,14.8z"/>
    <path fill="#FFFFFF" d="M32.9,54.4l2.3,0.4c0.3-0.7,0.6-1.3,0.7-1.9c0.2-0.7,0.3-1.4,0.4-2.2c0.1-1,0-2,0-3.1c0-0.5,0.2-1-0.3-1.1 c-0.4-0.1-0.6,0.5-0.9,0.7c-0.3,0.3-0.6,0.6-0.8,0.9c-0.5,0.5-0.9,1.1-1,1.8C33.1,51.1,33.4,53.3,32.9,54.4z"/>
    <path fill="#FFFFFF" d="M34,27.7c-0.4,0.5,0,1.7,0.3,2.2c0.5,0.7,1.4,1.5,2.3,1.9c0.4,0.2,0.7,0.4,0.9,0.5c0.9,0.3,2,0.3,3.1,0.4 c1.1,0.1,2.1,0.4,2.9,0.8l0.9-1.5c-0.2,0-0.4-0.5-0.5-0.8c-0.7-1.2-1.4-2.4-3.2-2.5c-2-0.1-3.8,0-5.3-0.6 C34.9,27.9,34.5,27.7,34,27.7z"/>
    <path fill="#FFFFFF" d="M36.1,34.5c-0.6-0.2-1-0.6-1.7-0.7c0.3,2.4,1.8,3.9,2.9,5.7c0.2,0.3,0.6,1,1.1,1.7c0.5,0.8,1,1.7,1.1,2.1 c0.1,0.2,0.6,1.4,0.8,1.7c0.2,0.6,0.3,1.2,0.3,1.9l1.3,0c0-1.7,0.2-4.2,0.1-5c0-0.1-1-3.4-1.2-3.9c-0.6-1.1-1.3-2.6-2.7-3 C37.3,34.8,36.7,34.8,36.1,34.5z"/>
    <path fill="#FFFFFF" d="M36.5,40.7C36.4,40.7,36.4,40.7,36.5,40.7C36.4,41.5,37,42.1,37,43c0,0.2,0.6,2.4,0.6,3c0,0.3,0,1.2,0,1.4 c0.2,1.1-0.2,2.3-0.2,3.4c0,0.3,0,0.6,0,0.9c0.5-0.4,0.8-1.2,1-1.8c0.5-1.7,0.6-4.1,0-5.7c-0.2-0.4-0.8-1.8-1.4-2.7 C36.8,41.1,36.6,40.8,36.5,40.7z"/>
    <path fill="#FFFFFF" d="M47.6,56.4c-0.8,0.7-0.8,1.3-1.2,2.6c1-0.3,1.7-1.1,3-0.8c0.5,0.1,0.9,0.4,1.4,0.6 c0.4,0.2,0.9,0.6,1.5,0.5c0.5-0.1,2.4-3.5,3.1-4.7c0,0,0-0.1,0.1-0.1c0.3-0.5,0.6-1.2,0.6-1.8c0-0.5-0.3-1.1-0.6-1.6 c-0.5-1-2.9-7.1-3.3-7.7l0,0c-0.2-0.1-0.4,0.4-0.6,1c0,0.1,0,0.1,0,0.2c-0.2,0.9-0.4,2-0.4,2.1c0,0.3,0.1,3.7,0.1,5 c0,1.1,0,2.3-0.4,3C50.1,55.7,48.4,55.8,47.6,56.4z"/>
    <path fill="#FFFFFF" d="M47.4,2.8c0.2,1,0.6,2,1.2,2.6c0.5,0.5,1.8,0.7,2.6,1.1c1.3,0.6,2.4,1.3,2.9,2.8L53.8,11 c2.1,0.2,3.5,1.5,5.7,1.6c0.3,0,0.6,0,0.9,0l1.9-0.8c-0.4-0.4-0.8-0.7-1.2-1.1c-0.4-0.4-0.8-0.7-1.1-1.1c-0.8-0.9-2.9-3.4-3.2-3.6 c-0.7-0.4-1.6-0.5-2.2-0.7c-0.7-0.2-1.5-0.5-2.1-0.8c-0.6-0.3-1.1-0.8-1.5-1.2c-0.4-0.4-0.8-1-1.4-1.3C49.1,1.8,47.9,2.6,47.4,2.8 z"/>
    <path fill="#FFFFFF" d="M52.6,1.5c0.2,0.5,0.9,0.6,1.5,0.9c1.1,0.5,2.2,1,3.3,1.5c1.1,0.6,1.6,1.2,2.3,2.2 c0.6,0.8,1.1,1.5,1.7,2.5c0.2,0.3,0.6,1.1,0.9,1.2l0.1,0c0.3,0,0.3-0.3,0.6-0.3c0.4,0,0.6,0.8,1.1,0.8c0.3,0,0.4-0.4,0.7-0.4 c0.2,0,0.3,0.2,0.6,0.2c0.2,0,0.8-0.4,1-0.5c0.7-0.5,1.2-0.7,1.9-1.1c0.3-0.1,0.8-0.4,0.9-0.6c0.1-0.5-0.8-1.6-1-1.9 c-0.4-0.6-0.8-1.2-1.3-1.7c-1-1-3.7-0.6-5.5-1c-1.5-0.3-2.5-0.9-3.8-1.4c-0.8-0.3-1.8-0.4-2.8-0.5c-0.3,0-0.5,0-0.8-0.1 C53.5,1.3,53,1.3,52.6,1.5z"/>
    <path fill="#FFFFFF" d="M57.3,54.7c-0.7,1.5-1.2,3.5-0.5,5.2c0.6,0,1.2,0,1.9-0.1c1.5-0.1,2.9-0.3,4.3-0.5c0,0,0-0.1,0-0.1 c-0.2-0.9-1.5-3.5-1.8-4.3c-0.1-0.4-0.3-0.7-0.3-1.3c0.1-0.4,0.2-0.8,0.4-1.2l-2.8-0.2c-0.2,0.5-0.6,1.2-0.7,1.4 C57.7,53.9,57.5,54.3,57.3,54.7z"/>
    <path fill="#FFFFFF" d="M59.3,0.7c0.2,0.3,0.7,0.4,1.2,0.5c1.9,0.6,4.4,1.3,6.9,0.9c0.9-0.2,1.8-0.3,2.4-0.8 c-0.4-0.4-1.1-0.5-1.7-0.6c-0.7-0.2-1.4-0.4-2.1-0.4C63.8,0.1,61.3,0.5,59.3,0.7z"/>
    <path fill="#FFFFFF" d="M62.3,11.9l-1.9,0.8c0.1,0,0.2,0,0.3,0.1c0.2,1.3,0.4,2.7,1.2,3.9c0.4,0.7,1.1,1.5,1.7,2.2 c0.2,0.2,0.4,0.6,0.7,0.6c0.4,0,0.5-0.7,0.6-0.9c0-0.2-0.4-0.2-0.4-0.4c0.4-0.5,0.9-0.9,1.3-1.3c0.4-0.4,1-0.8,1.3-1.3 c0.2-0.4,0.1-0.8,0.2-1.3c0-0.2,0.4-0.6,0.7-0.8c1-1,2.1-1.6,3.4-2.4c1.7-0.9,3.6-2.1,5.7-2.7c0.7-0.2,1.4-0.5,2.1-0.6l-0.5-1.9 c-1.8,0.5-3.6,1-5.3,1.7c-1.5,0.6-2.8,1.2-4,2c-0.6,0.4-2.8,2.2-3.5,2.5c-0.3,0.2-2,0.9-2.4,0.9c-0.3,0-0.7-0.4-1-0.7 C62.5,12.1,62.4,12,62.3,11.9z"/>
    <path fill="#FFFFFF" d="M66.1,52.1c-0.6,1.3-1.4,2.5-1.4,4.1c0,0.9,0.2,1.8,0.6,2.5c0.6-0.1,2.1-2.3,2.6-2.6 c0.8,0.7,1,1.8,1.9,2.4c0.6,0.5,3,2.2,3.7,2.4c-0.6-1.5-1.7-3.1-2.4-5c-0.5-1.3-1.7-6-1.7-6.2c0-0.2-0.5-2.4-0.9-2.8 c0,0-0.1-0.1-0.1-0.1c-0.6,0-0.6,1.4-0.7,1.6C67.5,49,66.4,51.5,66.1,52.1z"/>
    <path fill="#FFFFFF" d="M71.1,3.2c0,1.2,0.5,2.3,1.1,3c1.4-0.5,2.9-0.8,4.2-1.4c-0.4-0.5-1.3-0.8-2.2-1c-0.8-0.3-1.7-0.5-2.5-0.7 C71.6,3.1,71.3,3,71.1,3.2z"/>
    <path fill="#FFFFFF" d="M75.8,24.5c0,0.2,1.2,1.9,1.4,2.2c1,1.4,2,2.9,2.8,4.5c0.4,0.8,0.6,1.9,0.6,3c0.1,3.7-1.4,5.9-2.2,8.7 c-0.2,0.9-0.6,2.2-0.4,3.2c0.1,0.6,0.8,1.1,1.3,1.5c1.4,1.3,3.1,2.5,4.4,3.7c1,0.9,1.9,1.7,2.6,2.8c0.9,1.5,1.7,3.4,1.9,5.7 l7.1-15.3c-0.5-0.1-0.6-0.7-0.8-1c-0.7-1.2-1.3-2.3-2.1-3.4c-0.9-1.4-1.7-3-2.8-4.4c-0.5-0.7-1.1-1.3-1.7-1.9 c-1.7-1.8-3.4-3.9-4.3-6.4c-0.5-1.3-0.6-2.9-0.8-4.2c-0.1-0.5,0-1-0.3-1.4c-0.4,0.1-0.5,0.4-0.9,0.7c-0.9,0.7-2.2,0.8-3.5,1.2 C77.7,23.7,75.8,24.1,75.8,24.5z"/>
    <path fill="#FFFFFF" d="M78.1,53.2c-0.6-0.3-1.3-0.7-2-0.6c0.1,1.6,0.7,3.1,1.2,4.5c0.5,1.4,1,2.8,1.7,4.2c1.7,3.2,2.9,6.6,3,11.1 l6.3-10.5c-0.3,0-0.5-0.3-0.7-0.6c-0.6-0.8-1.2-1.5-1.8-2.3C83.7,56.7,81,54.6,78.1,53.2z"/>
    <path fill="#FFFFFF" d="M78.7,5.9l0.5,1.9c0.4-0.1,0.9-0.2,1.3-0.2c0.6,0,1.2,0.3,1.7,0.5l1-1.5c-0.2,0-0.3,0-0.5-0.1 c-0.1-0.5,0.4-1,0.2-1.5c-0.9-0.1-1.7,0.2-2.5,0.4C79.9,5.6,79.3,5.7,78.7,5.9z"/>
    <path fill="#FFFFFF" d="M83.2,6.6l-1,1.5c0.6,0.4,0.9,0.7,1.2,1.3c0.4,0.7,0.3,1,0,1.9c-0.1,0.3-0.2,0.5-0.2,0.7l2.1,0.1 c0.4-1.1,0.6-2,0.7-2.4c0-0.5,0-0.9,0-1.4c0-0.1,0-0.3,0-0.4c0-0.5,0.1-1.1-0.2-1.6C84.8,5.9,84.1,6.6,83.2,6.6z"/>
    <path fill="#FFFFFF" d="M85.1,16c-0.4,1.1-0.8,2.1-0.8,2.3c0,0.4,0.4,1,0.6,1.4c1.5,2.6,4,4.2,7.1,5.3c0.4,0.2,1.4,0.4,1.4,0.7 l5.8-11.3c-0.8,0.3-4.7,0.6-5.6,0.5c-0.5,0-5-2-7-2.3C86.3,13,85.6,14.6,85.1,16z"/>
  </g>
</svg>